<svg xmlns="http://www.w3.org/2000/svg" height="207.12" width="211.653" xml:space="preserve"><path style="fill:#fff;fill-opacity:1;fill-rule:nonzero;stroke:none" d="M1587.4.012H0V1553.39h1587.4V.012" transform="matrix(.13333 0 0 -.13333 0 207.12)"/><path style="fill:#b09879;fill-opacity:1;fill-rule:nonzero;stroke:none" d="M85.04 211.57v363.84h62.491V440.859h1.004l65.52 134.551h62.48l-67.519-135.558 76.082-228.282h-63.485l-50.898 169.328h-1.016l-22.168-40.316V211.57H85.039M314.379 575.41h62.488V300.77c0-26.54 11.082-39.809 33.262-39.809 22.176 0 33.262 13.269 33.262 39.809v274.64h62.488V303.289c0-31.578-8.496-55.609-25.449-72.059-16.969-16.468-40.399-24.699-70.301-24.699s-53.34 8.231-70.305 24.699c-16.972 16.45-25.445 40.481-25.445 72.059V575.41M555.469 211.57v363.84h62.48V266h98.274v-54.43H555.469M772.063 520.988h-60.477v54.422H895.02v-54.422h-60.469V211.57h-62.488v309.418M933.828 575.41h62.481V300.77c0-26.54 11.081-39.809 33.261-39.809 22.18 0 33.26 13.269 33.26 39.809v274.64h62.49V303.289c0-31.578-8.49-55.609-25.45-72.059-16.97-16.468-40.4-24.699-70.3-24.699-29.898 0-53.34 8.231-70.3 24.699-16.965 16.45-25.442 40.481-25.442 72.059V575.41M1238.76 412.141h22.18c8.39 0 15.54.839 21.42 2.519 5.86 1.668 10.65 4.692 14.35 9.07 3.7 4.36 6.39 10.161 8.07 17.379 1.68 7.231 2.52 16.2 2.52 26.973 0 21.488-3.53 36.188-10.59 44.09-7.05 7.887-18.98 11.84-35.77 11.84h-22.18zm0-200.571h-62.49v363.84h87.69c34.93 0 61.31-8.234 79.12-24.691 17.8-16.457 26.71-44.02 26.71-82.637 0-14.801-1.26-27.402-3.78-37.801-2.52-10.422-5.88-19.242-10.08-26.461-4.21-7.218-8.91-13.019-14.11-17.39-5.21-4.36-10.51-7.731-15.88-10.071l52.92-164.789h-63.5l-44.34 150.68c-4.04-.68-9-1.102-14.87-1.262a571.39 571.39 0 0 0-17.39-.258V211.57" transform="matrix(.13333 0 0 -.13333 0 207.12)"/><path style="fill:#e03956;fill-opacity:1;fill-rule:nonzero;stroke:none" d="M473.887 930.867c-.664 7.617-2.078 13.996-4.227 19.141-2.156 5.137-4.805 9.199-7.961 12.18-3.152 2.988-6.543 5.136-10.183 6.464-3.653 1.317-7.137 1.993-10.442 1.993-9.941 0-17.566-3.079-22.871-9.2-5.301-6.144-7.957-14.836-7.957-26.105 0-10.274 3.067-19.727 9.199-28.328 6.133-8.625 13.836-17.246 23.114-25.86 9.281-8.625 19.394-17.324 30.332-26.105a238.857 238.857 0 0 0 30.324-29.082c9.277-10.606 16.98-22.285 23.125-35.047 6.125-12.766 9.187-27.266 9.187-43.496 0-14.914-2.398-28.098-7.207-39.531-4.804-11.426-11.433-21.047-19.882-28.828-8.458-7.793-18.727-13.672-30.821-17.649-12.109-3.984-25.281-5.965-39.527-5.965-14.262 0-27.024 2.656-38.274 7.949-11.269 5.301-20.812 12.508-28.593 21.622-7.793 9.121-13.84 19.636-18.145 31.582-4.308 11.921-6.797 24.687-7.461 38.269l58.66 8.457c1.328-18.23 5.305-31.816 11.938-40.769 6.629-8.946 14.918-13.418 24.859-13.418 10.606 0 19.223 2.812 25.852 8.445 6.629 5.637 9.941 13.75 9.941 24.367 0 11.922-3.066 22.527-9.199 31.817-6.133 9.277-13.84 18.222-23.117 26.843-9.278 8.614-19.383 17.227-30.321 25.852a244.399 244.399 0 0 0-30.332 28.34c-9.277 10.273-16.98 21.875-23.117 34.804-6.133 12.918-9.195 27.996-9.195 45.235 0 28.836 8.277 50.957 24.859 66.376 16.563 15.41 40.102 23.12 70.598 23.12 12.586 0 23.855-2.16 33.809-6.47 9.941-4.32 18.464-10.36 25.593-18.143 7.129-7.793 12.934-16.993 17.403-27.598 4.472-10.606 7.375-22.207 8.703-34.797l-58.664-6.465M623.371 965.672h-59.656v53.688H744.68v-53.688h-59.66V660.418h-61.649v305.254M821.68 793.652h49.718l-24.367 154.121h-.996zm-19.883-133.234h-59.656l66.121 358.942h76.554l66.122-358.942h-59.657l-10.937 79.543h-67.617l-10.93-79.543M1273.43 965.672h-59.66v53.688h180.98v-53.688h-59.67V660.418h-61.65v305.254M1050.36 858.281h21.88c8.28 0 15.32.828 21.13 2.489 5.79 1.652 10.51 4.628 14.16 8.945 3.65 4.308 6.3 10.019 7.96 17.16 1.65 7.117 2.49 15.977 2.49 26.59 0 21.203-3.49 35.715-10.45 43.496-6.96 7.785-18.73 11.691-35.29 11.691h-21.88zm0-197.863h-61.645v358.942h86.505c34.47 0 60.47-8.12 78.05-24.36 17.57-16.242 26.35-43.43 26.35-81.535 0-14.59-1.24-27.02-3.73-37.285-2.49-10.282-5.8-18.973-9.94-26.102-4.15-7.129-8.78-12.851-13.92-17.148-5.14-4.309-10.37-7.629-15.66-9.942l52.21-162.57h-62.65l-43.75 148.645c-3.98-.665-8.87-1.075-14.67-1.243a568.19 568.19 0 0 0-17.15-.242v-147.16" transform="matrix(.13333 0 0 -.13333 0 207.12)"/><path style="fill:#4c5963;fill-opacity:1;fill-rule:nonzero;stroke:none" d="M720.391 1104.26v363.85h57.949l76.094-208.13h1.007v208.13h56.446v-363.85h-54.422l-79.629 227.28h-1.008v-227.28h-56.437M963.09 1104.26v363.85h167.3v-54.43h-104.82v-93.73h80.63v-54.43h-80.63v-106.83h111.87v-54.43H963.09M1180.28 1468.11h62.5v-274.65c0-26.55 11.08-39.82 33.26-39.82 22.16 0 33.25 13.27 33.25 39.82v274.65h62.49v-272.13c0-31.59-8.49-55.61-25.45-72.07-16.96-16.46-40.41-24.68-70.29-24.68-29.92 0-53.35 8.22-70.32 24.68-16.96 16.46-25.44 40.48-25.44 72.07v272.13" transform="matrix(.13333 0 0 -.13333 0 207.12)"/><path style="fill:#c2c5c7;fill-opacity:1;fill-rule:nonzero;stroke:none" d="m126.281 660.547-41.242-.07v807.873h549.926v-40.39H126.281V660.547M1502.36 85.05H85.04v42.52h1374.81v1340.78h42.51V85.05" transform="matrix(.13333 0 0 -.13333 0 207.12)"/></svg>