<svg xmlns="http://www.w3.org/2000/svg" height="250.507" width="175.107" xml:space="preserve"><path style="fill:#09090a;fill-opacity:1;fill-rule:nonzero;stroke:none" d="m1306 7.09-407.895.11v167.038l408.085-55.019zM732.598 491.129c18.73 0 24.98 11.281 24.98 23.762l-1.211 1.238h-25.019l-1.25 1.301v8.699l1.25 1.269h37.48l1.25-1.269v-43.731l-1.25-1.238h-7.48l-1.25 1.238-1.27 7.5h-1.25c-6.25-6.226-13.73-10.007-24.98-10.007-25.02 0-40 18.769-40 45.007 0 26.262 14.98 44.973 41.289 44.973 23.691 0 33.73-13.68 36.191-26.23l-1.25-1.2h-10l-1.25 1.2c-2.461 8.757-9.98 14.968-23.691 14.968-18.809 0-28.77-13.738-28.77-33.711 0-20.007 9.961-33.769 27.481-33.769zm-57.539-8.731-1.27-1.238h-11.25l-2.48 1.238-42.5 64.993h-1.27v-64.993l-1.23-1.238h-10l-1.25 1.238v85.032l1.25 1.191h11.23l2.52-1.191 42.519-65.02h1.211v65.02l1.27 1.191h9.98l1.27-1.191zm-90.02 197.524-1.25-1.231h-25.035l-1.211-1.242v-69.961l-1.27-1.238h-14.98l-1.289 1.238v69.961l-1.191 1.242h-25.04l-1.277 1.231v12.519l1.277 1.27h70.016l1.25-1.27zM581.27 512.41c0-20-12.52-32.519-33.766-32.519-21.211 0-33.731 12.519-33.731 32.519v55.02l1.262 1.191h9.969l1.289-1.191v-55.02c0-12.512 6.23-21.281 21.211-21.281 15.016 0 21.246 8.769 21.246 21.281v55.02l1.27 1.191h10l1.25-1.191zm-113.766 92.57c-25.02 0-36.25 12.508-36.25 28.711l1.25 1.27h15.019l1.204-1.27c0-8.742 5.027-13.722 20-13.722 11.289 0 17.5 3.742 17.5 11.242 0 8.758-4.981 11.23-22.512 13.75-17.469 2.508-31.211 8.73-31.211 26.199 0 12.512 9.98 23.801 33.762 23.801 23.757 0 33.718-11.289 33.718-26.242l-1.269-1.27h-14.969l-1.262 1.27c0 7.461-3.75 11.203-17.5 11.203-11.23 0-15-3.742-15-8.762 0-7.461 5-9.969 22.5-12.48 17.539-2.481 31.25-9.942 31.25-27.469 0-13.723-9.98-26.231-36.23-26.231zm33.769-46.371-1.289-1.218h-26.23l-1.27-1.2v-73.793l-1.25-1.238h-10l-1.23 1.238v73.793l-1.25 1.2h-26.25l-1.25 1.218v8.821l1.25 1.191h67.48l1.289-1.191zM457.465 429.84l-18.789-72.52-1.238-1.23h-16.223l-1.27 1.23-16.191 60.032h-1.277l-16.262-60.032-1.277-1.23h-16.25l-1.223 1.23-18.731 72.52v12.5l1.211 1.25h12.512l1.277-1.25 12.5-57.488h1.211l16.262 57.488 1.258 1.25h16.23l1.25-1.25 16.262-57.488h1.238l12.493 57.488 1.277 1.25h12.5l1.25-1.25zM339.977 607.488v84.953l1.238 1.27h17.48l2.481-1.27 33.789-57.48h1.211v57.48l1.289 1.27h14.98l1.27-1.27v-84.953l-1.27-1.238h-17.48l-2.52 1.238-33.75 57.442h-1.211v-57.442l-1.25-1.238h-15.019zm-6.321-237.648v-12.52l-1.25-1.23h-7.488l-2.473 1.23-25 32.532-2.519 1.238h-12.5l-1.25-1.238V357.32l-1.231-1.23h-15.027l-1.242 1.23v85.02l1.242 1.25h41.258c17.461 0 29.992-8.738 29.992-26.238 0-13.75-8.75-22.524-18.742-25v-1.262zm-96.211 188.769v8.821l1.243 1.191h67.488l1.211-1.191v-8.821l-1.211-1.218h-26.231l-1.289-1.2v-73.793l-1.25-1.238h-9.988l-1.262 1.238v73.793l-1.238 1.2h-26.23zm1.203-201.289-1.281-1.23h-17.5l-2.5 1.23-33.719 57.551h-1.281V357.32l-1.23-1.23h-14.989l-1.242 1.23v85.02l1.242 1.25h17.5l2.45-1.25 33.769-57.488h1.25v57.488l1.27 1.25h14.98l1.281-1.25zm-77.492 152.621h9.981l1.261-1.242c0-12.551 8.739-17.57 23.758-17.57 11.25 0 19.981 3.793 19.981 13.762 0 11.238-7.52 13.738-25 16.257-17.5 2.524-28.75 10.043-28.75 24.993 0 11.25 8.75 23.73 31.211 23.73 18.781 0 32.55-7.461 32.55-26.23l-1.281-1.2h-9.969l-1.281 1.2c0 10.031-5 14.968-21.211 14.968-11.269 0-17.527-4.937-17.527-12.468 0-10 6.258-12.45 23.758-14.95s29.98-8.812 29.98-26.3c0-13.762-9.961-25-33.738-25-21.242 0-35.012 10.007-35.012 28.808zm3.75 182.5 1.242 1.27h14.989l1.23-1.27v-36.242h1.281l36.219 36.242 2.52 1.27h6.23l1.262-1.27v-12.519l-25.012-25v-1.231l27.5-33.722v-12.481l-1.25-1.238h-8.73l-2.52 1.238-27.461 33.723h-1.269l-8.77-8.731v-24.992l-1.23-1.238h-14.989l-1.242 1.238zm82.52 0 1.269 1.27h14.981l1.242-1.27v-52.472c0-12.5 5-20 17.508-20 12.5 0 17.48 7.5 17.48 20v52.472l1.25 1.27h14.992l1.278-1.27v-52.472c0-22.481-12.528-34.989-35-34.989-22.5 0-35 12.508-35 34.989zm75.031-125.011 1.258 1.191h10.012l1.218-1.191v-85.032l-1.218-1.238h-10.012l-1.258 1.238zm96.238 0v-8.821l-1.218-1.218h-41.243l-1.25-1.2v-25l1.25-1.281h38.692l1.25-1.219v-8.793l-1.25-1.269h-38.692l-1.25-1.199v-35.032l-1.289-1.238h-9.961l-1.277 1.238v85.032l1.277 1.191h53.743zm479.41-386.02v597.371H80v-494.25l811.008-109.332V.082L1313.11 0l.19 125.43-415.195 55.98" transform="matrix(.13333 0 0 -.13333 0 250.507)"/><path style="fill:#09090a;fill-opacity:1;fill-rule:nonzero;stroke:none" d="M306.176 428.59h-23.75l-1.238-1.27v-20l1.238-1.218h23.75c7.5 0 12.519 2.488 12.519 11.25 0 8.769-5.019 11.238-12.519 11.238" transform="matrix(.13333 0 0 -.13333 0 250.507)"/><path style="fill:#fff;fill-opacity:1;fill-rule:nonzero;stroke:none" d="m1226 1107.09-407.895.11v167.04l408.085-55.02zm-573.402 484.04c18.73 0 24.98 11.28 24.98 23.76l-1.211 1.24h-25.019l-1.25 1.3v8.7l1.25 1.27h37.48l1.25-1.27v-43.73l-1.25-1.24h-7.48l-1.25 1.24-1.27 7.5h-1.25c-6.25-6.23-13.73-10.01-24.98-10.01-25.02 0-40 18.77-40 45.01 0 26.26 14.98 44.98 41.289 44.98 23.691 0 33.73-13.69 36.191-26.24l-1.25-1.2h-10l-1.25 1.2c-2.461 8.76-9.98 14.97-23.691 14.97-18.809 0-28.77-13.74-28.77-33.71 0-20.01 9.961-33.77 27.481-33.77zm-57.539-8.73-1.27-1.24h-11.25l-2.48 1.24-42.5 64.99h-1.27v-64.99l-1.23-1.24h-10l-1.25 1.24v85.03l1.25 1.2h11.23l2.52-1.2 42.519-65.02h1.211v65.02l1.27 1.2h9.98l1.27-1.2zm-90.02 197.52-1.25-1.23h-25.035l-1.211-1.24v-69.97l-1.27-1.23h-14.98l-1.289 1.23v69.97l-1.191 1.24h-25.04l-1.277 1.23v12.52l1.277 1.27h70.016l1.25-1.27zm-3.769-167.51c0-20-12.52-32.52-33.766-32.52-21.211 0-33.731 12.52-33.731 32.52v55.02l1.262 1.2h9.969l1.289-1.2v-55.02c0-12.51 6.23-21.28 21.211-21.28 15.016 0 21.246 8.77 21.246 21.28v55.02l1.27 1.2h10l1.25-1.2zm-113.766 92.57c-25.02 0-36.25 12.5-36.25 28.71l1.25 1.27h15.019l1.204-1.27c0-8.74 5.027-13.72 20-13.72 11.289 0 17.5 3.74 17.5 11.24 0 8.76-4.981 11.23-22.512 13.75-17.469 2.51-31.211 8.73-31.211 26.2 0 12.51 9.98 23.8 33.762 23.8 23.757 0 33.718-11.29 33.718-26.24l-1.269-1.27h-14.969l-1.262 1.27c0 7.46-3.75 11.2-17.5 11.2-11.23 0-15-3.74-15-8.76 0-7.46 5-9.97 22.5-12.48 17.539-2.48 31.25-9.94 31.25-27.47 0-13.73-9.98-26.23-36.23-26.23zm33.769-46.37-1.289-1.22h-26.23l-1.27-1.2v-73.79l-1.25-1.24h-10l-1.23 1.24v73.79l-1.25 1.2h-26.25l-1.25 1.22v8.82l1.25 1.2h67.48l1.289-1.2zm-43.808-128.77-18.789-72.52-1.238-1.23h-16.223l-1.27 1.23-16.191 60.04h-1.277l-16.262-60.04-1.277-1.23h-16.25l-1.223 1.23-18.731 72.52v12.5l1.211 1.25h12.512l1.277-1.25 12.5-57.48h1.211l16.262 57.48 1.258 1.25h16.23l1.25-1.25 16.262-57.48h1.238l12.493 57.48 1.277 1.25h12.5l1.25-1.25zm-117.488 177.64v84.96l1.238 1.27h17.48l2.481-1.27 33.789-57.48h1.211v57.48l1.289 1.27h14.98l1.27-1.27v-84.96l-1.27-1.23h-17.48l-2.52 1.23-33.75 57.45h-1.211v-57.45l-1.25-1.23h-15.019zm-6.321-237.64v-12.52l-1.25-1.23h-7.488l-2.473 1.23-25 32.54-2.519 1.23h-12.5l-1.25-1.23v-32.54l-1.231-1.23h-15.027l-1.242 1.23v85.02l1.242 1.25h41.258c17.461 0 29.992-8.73 29.992-26.23 0-13.75-8.75-22.54-18.742-25v-1.27zm-96.211 188.77v8.82l1.243 1.2h67.488l1.211-1.2v-8.82l-1.211-1.22h-26.231l-1.289-1.2v-73.79l-1.25-1.24h-9.988l-1.262 1.24v73.79l-1.238 1.2h-26.23zm1.203-201.29-1.281-1.23h-17.5l-2.5 1.23-33.719 57.56h-1.281v-57.56l-1.23-1.23H86.148l-1.242 1.23v85.02l1.242 1.25h17.5l2.45-1.25 33.769-57.48h1.25v57.48l1.27 1.25h14.98l1.281-1.25zm-77.492 152.62h9.98l1.262-1.24c0-12.55 8.739-17.57 23.758-17.57 11.25 0 19.981 3.79 19.981 13.76 0 11.24-7.52 13.74-25 16.26-17.5 2.52-28.75 10.04-28.75 24.99 0 11.25 8.75 23.74 31.211 23.74 18.781 0 32.55-7.47 32.55-26.24l-1.281-1.2h-9.969l-1.281 1.2c0 10.03-5 14.97-21.211 14.97-11.269 0-17.527-4.94-17.527-12.47 0-10 6.258-12.45 23.758-14.95s29.98-8.81 29.98-26.3c0-13.76-9.961-25-33.738-25-21.242 0-35.012 10.01-35.012 28.81zm3.75 182.5 1.242 1.27h14.989l1.23-1.27v-36.24h1.281l36.219 36.24 2.52 1.27h6.23l1.262-1.27v-12.52l-25.012-25v-1.23l27.5-33.72v-12.49l-1.25-1.23h-8.73l-2.52 1.23-27.461 33.73h-1.269l-8.77-8.73v-25l-1.23-1.23H86.148l-1.242 1.23zm82.52 0 1.269 1.27h14.981l1.242-1.27v-52.47c0-12.5 5-20 17.508-20 12.5 0 17.48 7.5 17.48 20v52.47l1.25 1.27h14.992l1.278-1.27v-52.47c0-22.49-12.528-34.99-35-34.99-22.5 0-35 12.5-35 34.99zm75.031-125.01 1.258 1.2h10.012l1.218-1.2v-85.03l-1.218-1.24h-10.012l-1.258 1.24zm96.238 0v-8.82l-1.218-1.22h-41.243l-1.25-1.2v-25l1.25-1.28h38.692l1.25-1.22v-8.79l-1.25-1.27h-38.692l-1.25-1.2v-35.03l-1.289-1.24h-9.961l-1.277 1.24v85.03l1.277 1.2h53.743zm479.41-386.02v597.37H0v-494.25l811.008-109.33v-175.12l422.102-.08.19 125.43-415.195 55.98" transform="matrix(.13333 0 0 -.13333 0 250.507)"/><path style="fill:#fff;fill-opacity:1;fill-rule:nonzero;stroke:none" d="M226.176 1528.59h-23.75l-1.238-1.27v-20l1.238-1.21h23.75c7.5 0 12.519 2.48 12.519 11.25s-5.019 11.23-12.519 11.23" transform="matrix(.13333 0 0 -.13333 0 250.507)"/></svg>