<?xml version="1.0" encoding="utf-8"?>
<!-- Generator: Adobe Illustrator 24.2.3, SVG Export Plug-In . SVG Version: 6.00 Build 0)  -->
<svg version="1.1" xmlns="http://www.w3.org/2000/svg" xmlns:xlink="http://www.w3.org/1999/xlink" x="0px" y="0px"
	 viewBox="0 0 4096 3112" style="enable-background:new 0 0 4096 3112;" xml:space="preserve">
<style type="text/css">
	.st0{fill:none;stroke:#AD1548;stroke-width:2.8346;stroke-miterlimit:10;}
	.st1{fill:none;stroke:#AD1548;stroke-miterlimit:10;}
	.st2{fill:#AD1548;}
	.st3{fill:#909793;}
</style>
<g id="symbol_outline">
	<path class="st0" d="M3643.3,1108.7c1.5-4.8,1.8-8.9,0.7-12.7c-2.5-8.5-10.6-12.6-19.9-17.4c-3.4-1.8-7.2-3.7-11.7-6.4
		c-10.3-6.1-16.5-10.5-20.2-13.7c-1.8-3.3-3.1-6.8-3.8-10.5c0.4-0.3,0.8-0.7,1.5-1.1c3.1-2.4,8.4-6.3,8.1-14.6l-0.2-5.5l-5.5-0.4
		c-1.6-0.1-3.3-0.4-5.1-0.7c-1.7-0.3-3.5-0.6-5.4-0.8c-0.1-1.4-0.3-2.7-0.4-4.1c-0.7-6.7-1.4-13.2-1.6-19.2c0.2-0.1,0.5-0.2,0.7-0.3
		c1.3-0.5,2.6-1,3.4-1.1l0.7-12.1c-7.1-1.4-8.8-2.3-8.8-2.1c-0.1-0.3-0.1-1.2-0.1-1.8c0-2.8-0.1-7-2.5-12.4
		c-4.6-10.4-12.1-12.8-18.9-14.5c-10.8-8.9-24.3-12.8-33.8-20.2c-5.5-6.6-9.1-14-10.1-21.3l4.1,0l1.6-12c-1-0.3-1.9-0.3-6.2-0.2
		h-11.8l-30.1,0l-3.4,0c-0.3,0-0.6,0-0.9,0c0,0,0,0,0,0h-7.5c-4.4-0.1-5.2-0.1-6.2,0.2l1.6,12h4.1c-1.3,10.1-7.8,20.4-17.3,28.4
		c-6.3,4.2-13.4,7.6-20.1,11.4c-1.6,0.5-3.2,0.9-4.8,1.3c-7.3,1.7-15.6,3.7-20.5,14.8c-2.4,5.5-2.5,9.7-2.5,12.5
		c0,0.5,0,1.3,0.2,1.3l0,0c-0.5,0.3-2.5,1.3-9,2.6l0.7,12.1c0.8,0.1,2.1,0.6,3.4,1.1c0.2,0.1,0.5,0.2,0.7,0.3
		c-0.1,6.1-0.8,12.6-1.6,19.3c-0.2,1.3-0.3,2.7-0.4,4c-1.9,0.2-3.7,0.5-5.4,0.8c-1.7,0.3-3.4,0.6-5.1,0.7l-5.5,0.4l-0.2,5.5
		c-0.3,8.3,4.9,12.2,8.1,14.6c3.1,2.3,3.5,2.6,2.8,5.6c-0.6,2.5-5.5,7.9-25.8,20c-3.9,2.4-7.7,4.3-11.2,6
		c-9.4,4.8-17.5,8.9-19.9,17.4c-1.1,3.7-0.8,7.9,0.7,12.7h-12.6c1.5-4.8,1.8-8.9,0.7-12.7c-2.5-8.5-10.6-12.6-19.9-17.4
		c-3.4-1.8-7.2-3.7-11.8-6.4c-10.1-6-16.3-10.4-20-13.6c-1.8-3.4-3.1-6.9-3.8-10.7c0.4-0.3,0.8-0.6,1.4-1.1
		c3.1-2.4,8.4-6.3,8.1-14.6l-0.2-5.5l-5.5-0.4c-1.6-0.1-3.3-0.4-5.1-0.7c-1.7-0.3-3.5-0.6-5.4-0.8c-0.1-1.3-0.3-2.7-0.4-4
		c-0.7-6.8-1.4-13.3-1.6-19.3c0.2-0.1,0.5-0.2,0.7-0.3c1.3-0.5,2.6-1,3.4-1.1l0.7-12.1c-7.1-1.4-8.8-2.3-8.8-2.1
		c-0.1-0.3-0.1-1.2-0.1-1.8c0-2.8-0.1-7-2.5-12.4c-4.5-10-11.6-12.6-18.3-14.3c-11.7-9.9-26.7-13.6-36.2-22.6
		c-4.5-6-7.5-12.5-8.4-19h4.1l1.6-12c-1-0.3-1.8-0.3-6.2-0.2l-11.8,0l-30.1,0h-2c-0.3,0-0.6,0-0.9,0c0,0,0,0,0,0l-8.9,0
		c-4.4-0.1-5.2-0.1-6.2,0.2l1.6,12h4.1c-1.6,12.6-11.2,25.5-25,34c-2,1.1-4.1,2.2-6.1,3.3c-0.8,0.4-1.5,0.8-2.3,1.2
		c-3,1.3-5.9,2-8.8,2.6c-7.3,1.7-15.6,3.7-20.5,14.8c-2.4,5.5-2.5,9.7-2.5,12.5c0,0.5,0,1.3,0.2,1.3l0,0c-0.5,0.3-2.5,1.3-9,2.6
		l0.7,12.1c0.8,0.1,2.1,0.6,3.4,1.1c0.2,0.1,0.5,0.2,0.7,0.3c-0.1,6.1-0.9,12.6-1.6,19.4c-0.1,1.3-0.3,2.6-0.4,4
		c-1.9,0.2-3.7,0.5-5.4,0.8c-1.7,0.3-3.4,0.6-5.1,0.7l-5.5,0.4l-0.2,5.5c-0.3,8.3,4.9,12.2,8.1,14.6c3.1,2.3,3.5,2.6,2.8,5.6
		c-0.6,2.4-5.4,7.8-25.8,20c-3.9,2.4-7.7,4.3-11.2,6c-9.4,4.8-17.5,8.9-19.9,17.4c-1.1,3.7-0.8,7.9,0.7,12.7h-62.3v24.2h17.5v614.5
		v41.3v7.1H3272v-7.1v-12.1v-98.7v-116.5c0-20.3,20.3-20.3,20.3-20.3h46.2c20.3,0,20.3,20.3,20.3,20.3v116.5v117.9H3689v-7.1v-41.3
		v-614.5h13.9v-24.2H3643.3z"/>
</g>
<g id="windows">
	<rect x="3452.9" y="1032.6" class="st1" width="26.2" height="26.3"/>
	<rect x="3452.9" y="1065" class="st1" width="26.2" height="23.4"/>
	<path class="st1" d="M3485.2,1000.1h10.8c13.1,0,13.9,11.6,13.9,13.9l0,12.5h-24.8V1000.1z"/>
	<rect x="3485.2" y="1032.6" class="st1" width="24.8" height="26.3"/>
	<rect x="3485.2" y="1065" class="st1" width="24.8" height="23.4"/>
	<path class="st1" d="M3466.9,1000.1h12.3v26.4h-26.2l0-12.5C3452.9,1001,3464.5,1000.2,3466.9,1000.1z"/>
	<rect x="3153" y="1065" class="st1" width="26" height="23.4"/>
	<rect x="3153" y="1032.6" class="st1" width="26" height="26.3"/>
	<path class="st1" d="M3165,1000.1c13.1,0,13.9,11.6,13.9,13.9l0,12.5l-26,0l0-26.4L3165,1000.1z"/>
	<rect x="3121.9" y="1065" class="st1" width="25" height="23.4"/>
	<rect x="3121.9" y="1032.6" class="st1" width="25" height="26.3"/>
	<path class="st1" d="M3135.8,1000.1l11.1,0l0,26.4l-25,0l0-12.5C3121.9,1001,3133.5,1000.2,3135.8,1000.1z"/>
	<rect x="3588.6" y="1453.6" class="st1" width="19" height="16.9"/>
	<path class="st1" d="M3527.5,1195.6h-19.4v-21.2h6.4c12.2,0,13,10.9,13,13V1195.6z"/>
	<rect x="3450.7" y="1403.6" class="st1" width="18.2" height="22.1"/>
	<rect x="3428.6" y="1403.6" class="st1" width="19" height="22.1"/>
	<rect x="3428.6" y="1435.2" class="st1" width="19" height="15.4"/>
	<rect x="3380.4" y="1380.6" class="st1" width="19.4" height="20"/>
	<rect x="3402.8" y="1380.6" class="st1" width="16.4" height="20"/>
	<path class="st1" d="M3403.5,1333.7h15.7v16.3h-16.4v-16.2C3403.1,1333.8,3403.4,1333.7,3403.5,1333.7z"/>
	<path class="st1" d="M3385.4,1174.4h9.7c12.2,0,13,10.9,13,13v8.1h-22.7V1174.4z"/>
	<path class="st1" d="M3380.1,1195.6h-21.9v-8.1c0-12.2,10.9-13,13-13h8.9V1195.6z"/>
	<path class="st1" d="M3445.8,1333.7c0.7,0,1.2,0.2,1.9,0.2v16.1h-19v-16.3H3445.8z"/>
	<rect x="3402.8" y="1353.1" class="st1" width="16.4" height="18.2"/>
	<rect x="3402.8" y="1403.6" class="st1" width="16.4" height="22.1"/>
	<rect x="3428.6" y="1380.6" class="st1" width="19" height="20"/>
	<rect x="3428.6" y="1353.1" class="st1" width="19" height="18.2"/>
	<path class="st1" d="M3450.7,1353.1h17.8c0.2,1.6,0.3,3,0.4,3.7v14.4h-18.2V1353.1z"/>
	<path class="st1" d="M3450.7,1350v-15.7c11.3,1.8,15.6,9.6,17.2,15.7H3450.7z"/>
	<rect x="3434.7" y="1231.7" class="st1" width="18.6" height="20"/>
	<rect x="3434.7" y="1200.9" class="st1" width="18.6" height="25.5"/>
	<path class="st1" d="M3434.7,1195.6v-8.1c0-12.2,10.8-13,13-13h5.6v21.2H3434.7z"/>
	<rect x="3458.7" y="1200.9" class="st1" width="19.4" height="25.5"/>
	<rect x="3458.7" y="1174.4" class="st1" width="19.4" height="21.2"/>
	<rect x="3483.4" y="1174.4" class="st1" width="19.4" height="21.2"/>
	<rect x="3358.2" y="1200.9" class="st1" width="21.9" height="25.5"/>
	<rect x="3385.4" y="1200.9" class="st1" width="22.7" height="25.5"/>
	<rect x="3385.4" y="1231.7" class="st1" width="22.7" height="20"/>
	<path class="st1" d="M3399.8,1334.1v15.9h-18.6C3384,1338.1,3394,1334.9,3399.8,1334.1z"/>
	<path class="st1" d="M3380.4,1356.8c0-1.4,0.3-2.5,0.4-3.7h18.9v18.2h-19.4V1356.8z"/>
	<rect x="3380.4" y="1403.6" class="st1" width="19.4" height="22.1"/>
	<rect x="3380.4" y="1435.2" class="st1" width="19.4" height="15.4"/>
	<rect x="3402.8" y="1435.2" class="st1" width="16.4" height="15.4"/>
	<rect x="3402.8" y="1453.6" class="st1" width="16.4" height="16.9"/>
	<rect x="3428.6" y="1453.6" class="st1" width="19" height="16.9"/>
	<rect x="3450.7" y="1453.6" class="st1" width="18.2" height="16.9"/>
	<rect x="3450.7" y="1435.2" class="st1" width="18.2" height="15.4"/>
	<rect x="3450.7" y="1380.6" class="st1" width="18.2" height="20"/>
	<rect x="3458.7" y="1231.7" class="st1" width="19.4" height="20"/>
	<rect x="3483.4" y="1231.7" class="st1" width="19.4" height="20"/>
	<rect x="3483.4" y="1200.9" class="st1" width="19.4" height="25.5"/>
	<rect x="3508.1" y="1200.9" class="st1" width="19.4" height="25.5"/>
	<rect x="3562.8" y="1403.6" class="st1" width="16.4" height="22.1"/>
	<rect x="3562.8" y="1435.2" class="st1" width="16.4" height="15.4"/>
	<rect x="3540.4" y="1380.6" class="st1" width="19.4" height="20"/>
	<rect x="3562.8" y="1380.6" class="st1" width="16.4" height="20"/>
	<rect x="3562.8" y="1353.1" class="st1" width="16.4" height="18.2"/>
	<path class="st1" d="M3562.8,1350v-16.2c0.2,0,0.5,0,0.7,0h15.7v16.3H3562.8z"/>
	<rect x="3554.8" y="1231.7" class="st1" width="21.9" height="20"/>
	<rect x="3582" y="1231.7" class="st1" width="22.7" height="20"/>
	<rect x="3582" y="1200.9" class="st1" width="22.7" height="25.5"/>
	<path class="st1" d="M3604.7,1195.6H3582v-21.2h9.7c12.2,0,13,10.9,13,13V1195.6z"/>
	<path class="st1" d="M3576.7,1195.6h-21.9v-8.1c0-12.2,10.9-13,13-13h8.9V1195.6z"/>
	<rect x="3554.8" y="1200.9" class="st1" width="21.9" height="25.5"/>
	<path class="st1" d="M3559.8,1334.1v15.9h-18.6C3544,1338.1,3553.9,1334.9,3559.8,1334.1z"/>
	<path class="st1" d="M3540.4,1356.8c0-1.4,0.3-2.5,0.4-3.7h18.9v18.2h-19.4V1356.8z"/>
	<rect x="3540.4" y="1403.6" class="st1" width="19.4" height="22.1"/>
	<rect x="3588.6" y="1403.6" class="st1" width="19" height="22.1"/>
	<rect x="3588.6" y="1380.6" class="st1" width="19" height="20"/>
	<rect x="3588.6" y="1353.1" class="st1" width="19" height="18.2"/>
	<path class="st1" d="M3588.6,1350v-16.3h17.2c0.7,0,1.2,0.2,1.9,0.2v16.1H3588.6z"/>
	<path class="st1" d="M3610.6,1334.3c11.3,1.8,15.6,9.6,17.2,15.7h-17.2V1334.3z"/>
	<rect x="3540.4" y="1435.2" class="st1" width="19.4" height="15.4"/>
	<rect x="3540.4" y="1453.6" class="st1" width="19.4" height="16.9"/>
	<rect x="3562.8" y="1453.6" class="st1" width="16.4" height="16.9"/>
	<rect x="3588.6" y="1435.2" class="st1" width="19" height="15.4"/>
	<rect x="3610.6" y="1435.2" class="st1" width="18.2" height="15.4"/>
	<rect x="3610.6" y="1403.6" class="st1" width="18.2" height="22.1"/>
	<rect x="3610.6" y="1380.6" class="st1" width="18.2" height="20"/>
	<path class="st1" d="M3610.6,1371.2v-18.2h17.8c0.2,1.6,0.3,3,0.4,3.7v14.4H3610.6z"/>
	<path class="st1" d="M3275.7,1195.6H3253v-21.2h9.7c12.2,0,13,10.9,13,13V1195.6z"/>
	<rect x="3189.7" y="1453.6" class="st1" width="16.4" height="16.9"/>
	<rect x="3055.5" y="1453.6" class="st1" width="19" height="16.9"/>
	<rect x="3029.7" y="1453.6" class="st1" width="16.4" height="16.9"/>
	<rect x="3129.6" y="1174.4" class="st1" width="19.4" height="21.2"/>
	<path class="st1" d="M3124.3,1195.6h-18.6v-8.1c0-12.2,10.9-13,13-13h5.6V1195.6z"/>
	<rect x="3154.3" y="1174.4" class="st1" width="19.4" height="21.2"/>
	<rect x="3167.3" y="1380.6" class="st1" width="19.4" height="20"/>
	<rect x="3189.7" y="1380.6" class="st1" width="16.4" height="20"/>
	<rect x="3189.7" y="1353.1" class="st1" width="16.4" height="18.2"/>
	<path class="st1" d="M3189.7,1350v-16.2c0.2,0,0.5,0,0.7,0h15.7v16.3H3189.7z"/>
	<path class="st1" d="M3198.4,1195.6h-19.4v-21.2h6.4c12.2,0,13,10.9,13,13V1195.6z"/>
	<rect x="3154.3" y="1200.9" class="st1" width="19.4" height="25.5"/>
	<rect x="3179.1" y="1200.9" class="st1" width="19.4" height="25.5"/>
	<rect x="3179.1" y="1231.7" class="st1" width="19.4" height="20"/>
	<path class="st1" d="M3186.7,1334.1v15.9h-18.6C3170.9,1338.1,3180.8,1334.9,3186.7,1334.1z"/>
	<path class="st1" d="M3167.3,1356.8c0-1.4,0.3-2.5,0.4-3.7h18.9v18.2h-19.4V1356.8z"/>
	<rect x="3167.3" y="1403.6" class="st1" width="19.4" height="22.1"/>
	<rect x="3189.7" y="1403.6" class="st1" width="16.4" height="22.1"/>
	<rect x="3215.5" y="1403.6" class="st1" width="19" height="22.1"/>
	<rect x="3215.5" y="1380.6" class="st1" width="19" height="20"/>
	<rect x="3215.5" y="1353.1" class="st1" width="19" height="18.2"/>
	<path class="st1" d="M3215.5,1350v-16.3h17.2c0.7,0,1.2,0.2,1.9,0.2v16.1H3215.5z"/>
	<path class="st1" d="M3247.7,1174.4v21.2h-21.9v-8.1c0-12.2,10.9-13,13-13H3247.7z"/>
	<rect x="3056.4" y="1231.7" class="st1" width="22.7" height="20"/>
	<rect x="3007.3" y="1380.6" class="st1" width="19.4" height="20"/>
	<rect x="3029.7" y="1380.6" class="st1" width="16.4" height="20"/>
	<rect x="3029.7" y="1353.1" class="st1" width="16.4" height="18.2"/>
	<path class="st1" d="M3029.7,1350v-16.2c0.2,0,0.5,0,0.7,0h15.7v16.3H3029.7z"/>
	<rect x="3029.2" y="1231.7" class="st1" width="21.9" height="20"/>
	<rect x="3056.4" y="1200.9" class="st1" width="22.7" height="25.5"/>
	<path class="st1" d="M3079.1,1195.6h-22.7v-21.2h9.7c12.2,0,13,10.9,13,13V1195.6z"/>
	<path class="st1" d="M3051.1,1195.6h-21.9v-8.1c0-12.2,10.8-13,13-13h8.9V1195.6z"/>
	<rect x="3029.2" y="1200.9" class="st1" width="21.9" height="25.5"/>
	<path class="st1" d="M3026.7,1334.1v15.9h-18.6C3010.9,1338.1,3020.8,1334.9,3026.7,1334.1z"/>
	<path class="st1" d="M3007.3,1356.8c0-1.4,0.3-2.5,0.4-3.7h19v18.2h-19.4V1356.8z"/>
	<rect x="3007.3" y="1403.6" class="st1" width="19.4" height="22.1"/>
	<rect x="3029.7" y="1403.6" class="st1" width="16.4" height="22.1"/>
	<rect x="3055.5" y="1403.6" class="st1" width="19" height="22.1"/>
	<rect x="3055.5" y="1380.6" class="st1" width="19" height="20"/>
	<rect x="3055.5" y="1353.1" class="st1" width="19" height="18.2"/>
	<path class="st1" d="M3055.5,1350v-16.3h17.2c0.7,0,1.2,0.2,1.9,0.2v16.1H3055.5z"/>
	<path class="st1" d="M3077.5,1334.3c11.3,1.8,15.6,9.6,17.2,15.7h-17.2V1334.3z"/>
	<rect x="3007.3" y="1435.2" class="st1" width="19.4" height="15.4"/>
	<rect x="3029.7" y="1435.2" class="st1" width="16.4" height="15.4"/>
	<rect x="3055.5" y="1435.2" class="st1" width="19" height="15.4"/>
	<rect x="3077.5" y="1435.2" class="st1" width="18.2" height="15.4"/>
	<rect x="3077.5" y="1403.6" class="st1" width="18.2" height="22.1"/>
	<rect x="3077.5" y="1380.6" class="st1" width="18.2" height="20"/>
	<path class="st1" d="M3077.5,1371.2v-18.2h17.8c0.2,1.6,0.3,3,0.4,3.7v14.4H3077.5z"/>
	<rect x="3105.7" y="1200.9" class="st1" width="18.6" height="25.5"/>
	<rect x="3129.6" y="1200.9" class="st1" width="19.4" height="25.5"/>
	<rect x="3129.6" y="1231.7" class="st1" width="19.4" height="20"/>
	<rect x="3154.3" y="1231.7" class="st1" width="19.4" height="20"/>
	<rect x="3167.3" y="1435.2" class="st1" width="19.4" height="15.4"/>
	<rect x="3189.7" y="1435.2" class="st1" width="16.4" height="15.4"/>
	<rect x="3215.5" y="1453.6" class="st1" width="19" height="16.9"/>
	<rect x="3215.5" y="1435.2" class="st1" width="19" height="15.4"/>
	<rect x="3237.5" y="1435.2" class="st1" width="18.2" height="15.4"/>
	<rect x="3237.5" y="1403.6" class="st1" width="18.2" height="22.1"/>
	<rect x="3237.5" y="1380.6" class="st1" width="18.2" height="20"/>
	<path class="st1" d="M3237.5,1371.2v-18.2h17.8c0.2,1.6,0.3,3,0.4,3.7v14.4H3237.5z"/>
	<path class="st1" d="M3237.5,1350v-15.7c11.3,1.8,15.6,9.6,17.2,15.7H3237.5z"/>
	<rect x="3225.8" y="1231.7" class="st1" width="21.9" height="20"/>
	<rect x="3225.8" y="1200.9" class="st1" width="21.9" height="25.5"/>
	<rect x="3253" y="1200.9" class="st1" width="22.7" height="25.5"/>
	<rect x="3007.3" y="1453.6" class="st1" width="19.4" height="16.9"/>
	<rect x="3018.9" y="1666.5" class="st1" width="31.9" height="53.6"/>
	<rect x="3018.9" y="1604.5" class="st1" width="31.9" height="50"/>
	<path class="st1" d="M3050.8,1592.4h-31.9v-31.1c0-14,12.4-14.9,14.9-14.9h17V1592.4z"/>
	<rect x="3062.9" y="1666.5" class="st1" width="32" height="53.6"/>
	<rect x="3062.9" y="1604.5" class="st1" width="32" height="50"/>
	<path class="st1" d="M3094.9,1592.4h-32v-46h17.1c14,0,14.9,12.4,14.9,14.9V1592.4z"/>
	<rect x="3077.5" y="1453.6" class="st1" width="18.2" height="16.9"/>
	<rect x="3105.7" y="1231.7" class="st1" width="18.6" height="20"/>
	<rect x="3130.3" y="1666.5" class="st1" width="31.9" height="53.6"/>
	<rect x="3130.3" y="1604.5" class="st1" width="31.9" height="50"/>
	<path class="st1" d="M3162.3,1592.4h-31.9v-31.1c0-14,12.4-14.9,14.9-14.9h17V1592.4z"/>
	<rect x="3167.3" y="1453.6" class="st1" width="19.4" height="16.9"/>
	<rect x="3174.4" y="1666.5" class="st1" width="32" height="53.6"/>
	<rect x="3174.4" y="1604.5" class="st1" width="32" height="50"/>
	<path class="st1" d="M3206.3,1592.4h-32v-46h17.1c14,0,14.9,12.4,14.9,14.9V1592.4z"/>
	<rect x="3237.5" y="1453.6" class="st1" width="18.2" height="16.9"/>
	<rect x="3253" y="1231.7" class="st1" width="22.7" height="20"/>
	<rect x="3358.2" y="1231.7" class="st1" width="21.9" height="20"/>
	<rect x="3380.4" y="1453.6" class="st1" width="19.4" height="16.9"/>
	<rect x="3423.1" y="1666.5" class="st1" width="31.9" height="53.6"/>
	<rect x="3423.1" y="1604.5" class="st1" width="31.9" height="50"/>
	<path class="st1" d="M3455.1,1592.4h-31.9v-31.1c0-14,12.4-14.9,14.9-14.9h17.1V1592.4z"/>
	<rect x="3467.2" y="1666.5" class="st1" width="31.9" height="53.6"/>
	<rect x="3467.2" y="1604.5" class="st1" width="31.9" height="50"/>
	<path class="st1" d="M3499.1,1592.4h-31.9v-46h17.1c14,0,14.8,12.4,14.9,14.9V1592.4z"/>
	<rect x="3508.1" y="1231.7" class="st1" width="19.4" height="20"/>
	<rect x="3534.6" y="1666.5" class="st1" width="31.9" height="53.6"/>
	<rect x="3534.6" y="1604.5" class="st1" width="31.9" height="50"/>
	<path class="st1" d="M3566.6,1592.4h-31.9v-31.1c0-14,12.4-14.9,14.9-14.9h17V1592.4z"/>
	<rect x="3578.7" y="1666.5" class="st1" width="31.9" height="53.6"/>
	<rect x="3578.7" y="1604.5" class="st1" width="31.9" height="50"/>
	<path class="st1" d="M3610.6,1592.4h-31.9v-46h17.1c14,0,14.8,12.4,14.9,14.9V1592.4z"/>
	<rect x="3610.6" y="1453.6" class="st1" width="18.2" height="16.9"/>
</g>
<g id="symbol">
	<path class="st2" d="M3643.3,1108.7c1.5-4.8,1.8-8.9,0.7-12.7c-2.5-8.5-10.6-12.6-19.9-17.4c-3.4-1.8-7.2-3.7-11.7-6.4
		c-10.3-6.1-16.5-10.5-20.2-13.7c-1.8-3.3-3.1-6.8-3.8-10.5c0.4-0.3,0.8-0.7,1.5-1.1c3.1-2.4,8.4-6.3,8.1-14.6l-0.2-5.5l-5.5-0.4
		c-1.6-0.1-3.3-0.4-5.1-0.7c-1.7-0.3-3.5-0.6-5.4-0.8c-0.1-1.4-0.3-2.7-0.4-4.1c-0.7-6.7-1.4-13.2-1.6-19.2c0.2-0.1,0.5-0.2,0.7-0.3
		c1.3-0.5,2.6-1,3.4-1.1l0.7-12.1c-7.1-1.4-8.8-2.3-8.8-2.1c-0.1-0.3-0.1-1.2-0.1-1.8c0-2.8-0.1-7-2.5-12.4
		c-4.6-10.4-12.1-12.8-18.9-14.5c-10.8-8.9-24.3-12.8-33.8-20.2c-5.5-6.6-9.1-14-10.1-21.3l4.1,0l1.6-12c-1-0.3-1.9-0.3-6.2-0.2
		h-11.8l-30.1,0l-3.4,0c-0.3,0-0.6,0-0.9,0c0,0,0,0,0,0h-7.5c-4.4-0.1-5.2-0.1-6.2,0.2l1.6,12h4.1c-1.3,10.1-7.8,20.4-17.3,28.4
		c-6.3,4.2-13.4,7.6-20.1,11.4c-1.6,0.5-3.2,0.9-4.8,1.3c-7.3,1.7-15.6,3.7-20.5,14.8c-2.4,5.5-2.5,9.7-2.5,12.5
		c0,0.5,0,1.3,0.2,1.3l0,0c-0.5,0.3-2.5,1.3-9,2.6l0.7,12.1c0.8,0.1,2.1,0.6,3.4,1.1c0.2,0.1,0.5,0.2,0.7,0.3
		c-0.1,6.1-0.8,12.6-1.6,19.3c-0.2,1.3-0.3,2.7-0.4,4c-1.9,0.2-3.7,0.5-5.4,0.8c-1.7,0.3-3.4,0.6-5.1,0.7l-5.5,0.4l-0.2,5.5
		c-0.3,8.3,4.9,12.2,8.1,14.6c3.1,2.3,3.5,2.6,2.8,5.6c-0.6,2.5-5.5,7.9-25.8,20c-3.9,2.4-7.7,4.3-11.2,6
		c-9.4,4.8-17.5,8.9-19.9,17.4c-1.1,3.7-0.8,7.9,0.7,12.7h-12.6c1.5-4.8,1.8-8.9,0.7-12.7c-2.5-8.5-10.6-12.6-19.9-17.4
		c-3.4-1.8-7.2-3.7-11.8-6.4c-10.1-6-16.3-10.4-20-13.6c-1.8-3.4-3.1-6.9-3.8-10.7c0.4-0.3,0.8-0.6,1.4-1.1
		c3.1-2.4,8.4-6.3,8.1-14.6l-0.2-5.5l-5.5-0.4c-1.6-0.1-3.3-0.4-5.1-0.7c-1.7-0.3-3.5-0.6-5.4-0.8c-0.1-1.3-0.3-2.7-0.4-4
		c-0.7-6.8-1.4-13.3-1.6-19.3c0.2-0.1,0.5-0.2,0.7-0.3c1.3-0.5,2.6-1,3.4-1.1l0.7-12.1c-7.1-1.4-8.8-2.3-8.8-2.1
		c-0.1-0.3-0.1-1.2-0.1-1.8c0-2.8-0.1-7-2.5-12.4c-4.5-10-11.6-12.6-18.3-14.3c-11.7-9.9-26.7-13.6-36.2-22.6
		c-4.5-6-7.5-12.5-8.4-19h4.1l1.6-12c-1-0.3-1.8-0.3-6.2-0.2l-11.8,0l-30.1,0h-2c-0.3,0-0.6,0-0.9,0c0,0,0,0,0,0l-8.9,0
		c-4.4-0.1-5.2-0.1-6.2,0.2l1.6,12h4.1c-1.6,12.6-11.2,25.5-25,34c-2,1.1-4.1,2.2-6.1,3.3c-0.8,0.4-1.5,0.8-2.3,1.2
		c-3,1.3-5.9,2-8.8,2.6c-7.3,1.7-15.6,3.7-20.5,14.8c-2.4,5.5-2.5,9.7-2.5,12.5c0,0.5,0,1.3,0.2,1.3l0,0c-0.5,0.3-2.5,1.3-9,2.6
		l0.7,12.1c0.8,0.1,2.1,0.6,3.4,1.1c0.2,0.1,0.5,0.2,0.7,0.3c-0.1,6.1-0.9,12.6-1.6,19.4c-0.1,1.3-0.3,2.6-0.4,4
		c-1.9,0.2-3.7,0.5-5.4,0.8c-1.7,0.3-3.4,0.6-5.1,0.7l-5.5,0.4l-0.2,5.5c-0.3,8.3,4.9,12.2,8.1,14.6c3.1,2.3,3.5,2.6,2.8,5.6
		c-0.6,2.4-5.4,7.8-25.8,20c-3.9,2.4-7.7,4.3-11.2,6c-9.4,4.8-17.5,8.9-19.9,17.4c-1.1,3.7-0.8,7.9,0.7,12.7h-62.3v24.2h17.5v614.5
		v41.3v7.1H3272v-7.1v-12.1v-98.7v-116.5c0-20.3,20.3-20.3,20.3-20.3h46.2c20.3,0,20.3,20.3,20.3,20.3v116.5v117.9H3689v-7.1v-41.3
		v-614.5h13.9v-24.2H3643.3z M3452.9,1058.9l0-26.3h26.2v26.3H3452.9z M3479.2,1065v23.4l-26.2,0l0-23.4H3479.2z M3485.2,1000.1
		h10.8c13.1,0,13.9,11.6,13.9,13.9l0,12.5h-24.8V1000.1z M3485.2,1032.6h24.8l0,26.3h-24.8V1032.6z M3485.2,1065h24.8l0,23.4
		l-24.8,0V1065z M3466.9,1000.1h12.3v26.4h-26.2l0-12.5C3452.9,1001,3464.5,1000.2,3466.9,1000.1z M3153,1088.4l0-23.4l26,0l0,23.4
		L3153,1088.4z M3153,1058.9l0-26.3l26,0l0,26.3L3153,1058.9z M3165,1000.1c13.1,0,13.9,11.6,13.9,13.9l0,12.5l-26,0l0-26.4
		L3165,1000.1z M3121.9,1088.4l0-23.4l25,0l0,23.4L3121.9,1088.4z M3121.9,1058.9l0-26.3l25,0l0,26.3L3121.9,1058.9z M3135.8,1000.1
		l11.1,0l0,26.4l-25,0l0-12.5C3121.9,1001,3133.5,1000.2,3135.8,1000.1z M3588.6,1470.5v-16.9h19v16.9H3588.6z M3527.5,1195.6h-19.4
		v-21.2h6.4c12.2,0,13,10.9,13,13V1195.6z M3468.8,1425.8h-18.2v-22.1h18.2V1425.8z M3447.6,1425.8h-19v-22.1h19V1425.8z
		 M3447.6,1435.2v15.4h-19v-15.4H3447.6z M3380.4,1380.6h19.4v20h-19.4V1380.6z M3402.8,1380.6h16.4v20h-16.4V1380.6z
		 M3403.5,1333.7h15.7v16.3h-16.4v-16.2C3403.1,1333.8,3403.4,1333.7,3403.5,1333.7z M3385.4,1174.4h9.7c12.2,0,13,10.9,13,13v8.1
		h-22.7V1174.4z M3380.1,1195.6h-21.9v-8.1c0-12.2,10.9-13,13-13h8.9V1195.6z M3445.8,1333.7c0.7,0,1.2,0.2,1.9,0.2v16.1h-19v-16.3
		H3445.8z M3419.2,1353.1v18.2h-16.4v-18.2H3419.2z M3419.2,1403.6v22.1h-16.4v-22.1H3419.2z M3428.6,1400.6v-20h19v20H3428.6z
		 M3428.6,1371.2v-18.2h19v18.2H3428.6z M3450.7,1353.1h17.8c0.2,1.6,0.3,3,0.4,3.7v14.4h-18.2V1353.1z M3450.7,1350v-15.7
		c11.3,1.8,15.6,9.6,17.2,15.7H3450.7z M3434.7,1251.6v-20h18.6v20H3434.7z M3434.7,1226.4v-25.5h18.6v25.5H3434.7z M3434.7,1195.6
		v-8.1c0-12.2,10.8-13,13-13h5.6v21.2H3434.7z M3458.7,1200.9h19.4v25.5h-19.4V1200.9z M3458.7,1195.6v-21.2h19.4v21.2H3458.7z
		 M3483.4,1174.4h19.4v21.2h-19.4V1174.4z M3358.2,1200.9h21.9v25.5h-21.9V1200.9z M3385.4,1200.9h22.7v25.5h-22.7V1200.9z
		 M3408.1,1231.7v20h-22.7v-20H3408.1z M3399.8,1334.1v15.9h-18.6C3384,1338.1,3394,1334.9,3399.8,1334.1z M3380.4,1356.8
		c0-1.4,0.3-2.5,0.4-3.7h18.9v18.2h-19.4V1356.8z M3380.4,1403.6h19.4v22.1h-19.4V1403.6z M3380.4,1435.2h19.4v15.4h-19.4V1435.2z
		 M3402.8,1435.2h16.4v15.4h-16.4V1435.2z M3419.2,1453.6v16.9h-16.4v-16.9H3419.2z M3428.6,1453.6h19v16.9h-19V1453.6z
		 M3450.7,1453.6h18.2v16.9h-18.2V1453.6z M3468.8,1450.6h-18.2v-15.4h18.2V1450.6z M3468.8,1400.6h-18.2v-20h18.2V1400.6z
		 M3458.7,1251.6v-20h19.4v20H3458.7z M3483.4,1231.7h19.4v20h-19.4V1231.7z M3483.4,1226.4v-25.5h19.4v25.5H3483.4z M3508.1,1200.9
		h19.4v25.5h-19.4V1200.9z M3562.8,1425.8v-22.1h16.4v22.1H3562.8z M3579.2,1435.2v15.4h-16.4v-15.4H3579.2z M3540.4,1380.6h19.4v20
		h-19.4V1380.6z M3562.8,1380.6h16.4v20h-16.4V1380.6z M3562.8,1371.2v-18.2h16.4v18.2H3562.8z M3562.8,1350v-16.2
		c0.2,0,0.5,0,0.7,0h15.7v16.3H3562.8z M3554.8,1231.7h21.9v20h-21.9V1231.7z M3582,1251.6v-20h22.7v20H3582z M3604.7,1226.4H3582
		v-25.5h22.7V1226.4z M3604.7,1195.6H3582v-21.2h9.7c12.2,0,13,10.9,13,13V1195.6z M3576.7,1195.6h-21.9v-8.1c0-12.2,10.9-13,13-13
		h8.9V1195.6z M3554.8,1200.9h21.9v25.5h-21.9V1200.9z M3559.8,1334.1v15.9h-18.6C3544,1338.1,3553.9,1334.9,3559.8,1334.1z
		 M3540.4,1356.8c0-1.4,0.3-2.5,0.4-3.7h18.9v18.2h-19.4V1356.8z M3540.4,1403.6h19.4v22.1h-19.4V1403.6z M3588.6,1403.6h19v22.1
		h-19V1403.6z M3588.6,1400.6v-20h19v20H3588.6z M3588.6,1371.2v-18.2h19v18.2H3588.6z M3588.6,1350v-16.3h17.2
		c0.7,0,1.2,0.2,1.9,0.2v16.1H3588.6z M3610.6,1334.3c11.3,1.8,15.6,9.6,17.2,15.7h-17.2V1334.3z M3559.8,1435.2v15.4h-19.4v-15.4
		H3559.8z M3540.4,1453.6h19.4v16.9h-19.4V1453.6z M3562.8,1453.6h16.4v16.9h-16.4V1453.6z M3588.6,1450.6v-15.4h19v15.4H3588.6z
		 M3610.6,1435.2h18.2v15.4h-18.2V1435.2z M3610.6,1425.8v-22.1h18.2v22.1H3610.6z M3628.8,1400.6h-18.2v-20h18.2V1400.6z
		 M3610.6,1371.2v-18.2h17.8c0.2,1.6,0.3,3,0.4,3.7v14.4H3610.6z M3275.7,1195.6H3253v-21.2h9.7c12.2,0,13,10.9,13,13V1195.6z
		 M3189.7,1470.5v-16.9h16.4v16.9H3189.7z M3055.5,1470.5v-16.9h19v16.9H3055.5z M3029.7,1470.5v-16.9h16.4v16.9H3029.7z
		 M3129.6,1174.4h19.4v21.2h-19.4V1174.4z M3124.3,1195.6h-18.6v-8.1c0-12.2,10.9-13,13-13h5.6V1195.6z M3154.3,1174.4h19.4v21.2
		h-19.4V1174.4z M3167.3,1380.6h19.4v20h-19.4V1380.6z M3189.7,1380.6h16.4v20h-16.4V1380.6z M3189.7,1371.2v-18.2h16.4v18.2H3189.7
		z M3189.7,1350v-16.2c0.2,0,0.5,0,0.7,0h15.7v16.3H3189.7z M3198.4,1195.6h-19.4v-21.2h6.4c12.2,0,13,10.9,13,13V1195.6z
		 M3173.8,1200.9v25.5h-19.4v-25.5H3173.8z M3179.1,1200.9h19.4v25.5h-19.4V1200.9z M3198.4,1231.7v20h-19.4v-20H3198.4z
		 M3186.7,1334.1v15.9h-18.6C3170.9,1338.1,3180.8,1334.9,3186.7,1334.1z M3167.3,1356.8c0-1.4,0.3-2.5,0.4-3.7h18.9v18.2h-19.4
		V1356.8z M3167.3,1403.6h19.4v22.1h-19.4V1403.6z M3189.7,1403.6h16.4v22.1h-16.4V1403.6z M3215.5,1403.6h19v22.1h-19V1403.6z
		 M3215.5,1400.6v-20h19v20H3215.5z M3215.5,1371.2v-18.2h19v18.2H3215.5z M3215.5,1350v-16.3h17.2c0.7,0,1.2,0.2,1.9,0.2v16.1
		H3215.5z M3247.7,1174.4v21.2h-21.9v-8.1c0-12.2,10.9-13,13-13H3247.7z M3056.4,1251.6v-20h22.7v20H3056.4z M3007.3,1380.6h19.4v20
		h-19.4V1380.6z M3029.7,1380.6h16.4v20h-16.4V1380.6z M3029.7,1371.2v-18.2h16.4v18.2H3029.7z M3029.7,1350v-16.2
		c0.2,0,0.5,0,0.7,0h15.7v16.3H3029.7z M3029.2,1251.6v-20h21.9v20H3029.2z M3079.1,1226.4h-22.7v-25.5h22.7V1226.4z M3079.1,1195.6
		h-22.7v-21.2h9.7c12.2,0,13,10.9,13,13V1195.6z M3051.1,1195.6h-21.9v-8.1c0-12.2,10.8-13,13-13h8.9V1195.6z M3029.2,1200.9h21.9
		v25.5h-21.9V1200.9z M3026.7,1334.1v15.9h-18.6C3010.9,1338.1,3020.8,1334.9,3026.7,1334.1z M3007.3,1356.8c0-1.4,0.3-2.5,0.4-3.7
		h19v18.2h-19.4V1356.8z M3007.3,1403.6h19.4v22.1h-19.4V1403.6z M3029.7,1403.6h16.4v22.1h-16.4V1403.6z M3055.5,1403.6h19v22.1
		h-19V1403.6z M3055.5,1400.6v-20h19v20H3055.5z M3055.5,1371.2v-18.2h19v18.2H3055.5z M3055.5,1350v-16.3h17.2
		c0.7,0,1.2,0.2,1.9,0.2v16.1H3055.5z M3077.5,1334.3c11.3,1.8,15.6,9.6,17.2,15.7h-17.2V1334.3z M3007.3,1435.2h19.4v15.4h-19.4
		V1435.2z M3029.7,1435.2h16.4v15.4h-16.4V1435.2z M3055.5,1450.6v-15.4h19v15.4H3055.5z M3077.5,1435.2h18.2v15.4h-18.2V1435.2z
		 M3077.5,1425.8v-22.1h18.2v22.1H3077.5z M3095.7,1400.6h-18.2v-20h18.2V1400.6z M3077.5,1371.2v-18.2h17.8c0.2,1.6,0.3,3,0.4,3.7
		v14.4H3077.5z M3105.7,1200.9h18.6v25.5h-18.6V1200.9z M3129.6,1200.9h19.4v25.5h-19.4V1200.9z M3149.1,1231.7v20h-19.4v-20H3149.1
		z M3154.3,1231.7h19.4v20h-19.4V1231.7z M3167.3,1435.2h19.4v15.4h-19.4V1435.2z M3189.7,1435.2h16.4v15.4h-16.4V1435.2z
		 M3215.5,1453.6h19v16.9h-19V1453.6z M3215.5,1450.6v-15.4h19v15.4H3215.5z M3237.5,1435.2h18.2v15.4h-18.2V1435.2z M3237.5,1425.8
		v-22.1h18.2v22.1H3237.5z M3255.7,1400.6h-18.2v-20h18.2V1400.6z M3237.5,1371.2v-18.2h17.8c0.2,1.6,0.3,3,0.4,3.7v14.4H3237.5z
		 M3237.5,1350v-15.7c11.3,1.8,15.6,9.6,17.2,15.7H3237.5z M3225.8,1251.6v-20h21.9v20H3225.8z M3225.8,1226.4v-25.5h21.9v25.5
		H3225.8z M3253,1200.9h22.7v25.5H3253V1200.9z M3007.3,1453.6h19.4v16.9h-19.4V1453.6z M3050.8,1720.1h-31.9v-53.6h31.9V1720.1z
		 M3050.8,1654.4h-31.9v-50h31.9V1654.4z M3050.8,1592.4h-31.9v-31.1c0-14,12.4-14.9,14.9-14.9h17V1592.4z M3094.9,1720.1h-32v-53.6
		h32V1720.1z M3094.9,1654.4h-32v-50h32V1654.4z M3094.9,1592.4h-32v-46h17.1c14,0,14.9,12.4,14.9,14.9V1592.4z M3077.5,1470.5
		v-16.9h18.2v16.9H3077.5z M3105.7,1231.7h18.6v20h-18.6V1231.7z M3162.3,1720.1h-31.9v-53.6h31.9V1720.1z M3162.3,1654.4h-31.9v-50
		h31.9V1654.4z M3162.3,1592.4h-31.9v-31.1c0-14,12.4-14.9,14.9-14.9h17V1592.4z M3167.3,1453.6h19.4v16.9h-19.4V1453.6z
		 M3206.3,1720.1h-32v-53.6h32V1720.1z M3206.3,1654.4h-32v-50h32V1654.4z M3206.3,1592.4h-32v-46h17.1c14,0,14.9,12.4,14.9,14.9
		V1592.4z M3237.5,1470.5v-16.9h18.2v16.9H3237.5z M3253,1251.6v-20h22.7v20H3253z M3358.2,1251.6v-20h21.9v20H3358.2z
		 M3380.4,1453.6h19.4v16.9h-19.4V1453.6z M3455.1,1720.1h-31.9v-53.6h31.9V1720.1z M3455.1,1654.4h-31.9v-50h31.9V1654.4z
		 M3455.1,1592.4h-31.9v-31.1c0-14,12.4-14.9,14.9-14.9h17.1V1592.4z M3499.1,1720.1h-31.9v-53.6h31.9V1720.1z M3499.1,1654.4h-31.9
		v-50h31.9V1654.4z M3499.1,1592.4h-31.9v-46h17.1c14,0,14.8,12.4,14.9,14.9V1592.4z M3508.1,1251.6v-20h19.4v20H3508.1z
		 M3566.6,1720.1h-31.9v-53.6h31.9V1720.1z M3566.6,1654.4h-31.9v-50h31.9V1654.4z M3566.6,1592.4h-31.9v-31.1
		c0-14,12.4-14.9,14.9-14.9h17V1592.4z M3610.6,1720.1h-31.9v-53.6h31.9V1720.1z M3610.6,1654.4h-31.9v-50h31.9V1654.4z
		 M3610.6,1592.4h-31.9v-46h17.1c14,0,14.8,12.4,14.9,14.9V1592.4z M3610.6,1470.5v-16.9h18.2v16.9H3610.6z"/>
</g>
<g id="text">
	<path class="st2" d="M3526.6,2202.5h32.8v-94.5c0-41.5,21.7-107.5,65.1-107.5c33.8,0,33.8,35.2,33.8,74.7v127.3h32.8v-164
		c0-38.1-19.8-70.9-58.8-70.9c-51.1,0-65.6,39.5-71.9,58.4h-1v-53.1h-32.8V2202.5z M3403.6,2202.5h32.8v-332.8h-32.8V2202.5z
		 M3180.3,2087.7c0-57.4,18.8-92.6,55.9-92.6c37.6,0,56.9,35.2,56.9,92.6c0,57.9-19.3,92.6-56.9,92.6
		C3199.1,2180.3,3180.3,2145.6,3180.3,2087.7 M3236.3,2207.8c68,0,94.5-52.6,94.5-119.6c0-67-26.5-120.6-94.5-120.6
		c-67.5,0-93.6,53.5-93.6,120.6C3142.7,2155.2,3168.7,2207.8,3236.3,2207.8 M3257.5,1927.6h43.4v-42.4h-43.4V1927.6z M3172.6,1927.6
		h43.4v-42.4h-43.4V1927.6z M2944,2202.5h32.8V2080h1l89.2,122.5h40.5l-92.6-127.8l82.5-101.8h-40l-79.6,96.9h-1v-200.1H2944V2202.5
		z"/>
	<path class="st3" d="M2800.8,2061.2c-18.3-9.6-41.5-17.4-41.5-36.2c0-16.4,18.3-29.9,46.3-29.9c23.1,0,45.8,7.7,53.5,10.6v-30.4
		c-10.6-2.4-29.4-7.7-54-7.7c-51.1,0-78.6,23.6-78.6,60.8c0,37.6,30.9,50.1,52.1,62.2l20.7,11.1c13.5,7.7,41.5,17.8,41.5,41.5
		c0,26.5-24.1,37.1-55.9,37.1c-26,0-53.5-10.1-59.3-12.1v29.9c9.2,2.9,32.8,9.6,62.7,9.6c53.6,0,85.4-23.6,85.4-69.4
		c0-39.5-29.4-53-53.5-65.6L2800.8,2061.2z M2624.8,2202.5h32.8v-229.6h-32.8v94.5c0,41.5-21.2,107.5-64.6,107.5
		c-33.8,0-33.8-35.2-33.8-74.7v-127.3h-32.8v164c0,38.1,19.3,70.9,58.8,70.9c51.1,0,65.6-39.5,71.4-58.4h1V2202.5z M2376.4,2098.3
		c0,27.5-2.9,32.8-8.7,46.3c-9.6,22.2-32.8,35.7-53.5,35.7c-16.9,0-32.3-11.6-32.3-33.3c0-39.1,51.1-48.7,75.2-48.7H2376.4z
		 M2377.4,2202.5h31.8v-161.1c0-28.9-5.8-73.8-77.2-73.8c-62.7,0-82,35.2-82.5,64.1h36.7c2.4-17.8,9.6-36.6,46.8-36.6
		c17.4,0,36.7,6.3,41.9,31.8c1.5,7.7,1.5,32.8,1.5,43.9c-7.7,1.5-14.5,1.5-22.7,1.5c-40,0-109.5,17.8-109.5,71.4
		c0,41,24.1,64.1,61.7,64.1c42,0,64.6-24.6,70.4-35.7h1V2202.5z M2011.8,2202.5h32.8v-94.5c0-41.5,21.7-107.5,65.1-107.5
		c33.8,0,33.8,35.2,33.8,74.7v127.3h32.8v-164c0-38.1-19.8-70.9-58.8-70.9c-51.1,0-65.6,39.5-71.9,58.4h-1v-156.2h-32.8V2202.5z
		 M1850.2,2202.5h32.8v-95c0-61.7,25.6-104.6,77.6-104.6v-35.2c-52.6,0-69.9,34.2-76.7,49.7h-1v-44.4h-32.8V2202.5z M1728.7,2202.5
		h32.8v-229.6h-32.8v94.5c0,41.5-21.2,107.5-64.6,107.5c-33.8,0-33.8-35.2-33.8-74.7v-127.3h-32.8v164c0,38.1,19.3,70.9,58.8,70.9
		c51.1,0,65.6-39.5,71.4-58.4h1V2202.5z M1537.7,2175.9c-7.2,2.4-11.6,4.3-22.2,4.3c-33.8,0-37.6-23.6-37.6-38.6v-141.3h61.7v-27.5
		h-61.7v-74.3l-32.8,20.7v53.5h-37.6v27.5h37.6v148.1c0,41,17.4,59.3,63.7,59.3c9.6,0,19.3-1,28.9-2.4V2175.9z M1310.1,2098.3
		c0,27.5-2.9,32.8-8.7,46.3c-9.6,22.2-32.8,35.7-53.5,35.7c-16.9,0-32.3-11.6-32.3-33.3c0-39.1,51.1-48.7,75.2-48.7H1310.1z
		 M1311.1,2202.5h31.8v-161.1c0-28.9-5.8-73.8-77.2-73.8c-62.7,0-82,35.2-82.5,64.1h36.7c2.4-17.8,9.6-36.6,46.8-36.6
		c17.4,0,36.7,6.3,42,31.8c1.5,7.7,1.5,32.8,1.5,43.9c-7.7,1.5-14.5,1.5-22.7,1.5c-40,0-109.5,17.8-109.5,71.4
		c0,41,24.1,64.1,61.7,64.1c42,0,64.6-24.6,70.4-35.7h1V2202.5z M1034.8,2202.5h32.8v-95c0-61.7,25.6-104.6,77.6-104.6v-35.2
		c-52.6,0-69.9,34.2-76.7,49.7h-1v-44.4h-32.8V2202.5z M835.6,2038.5c2.9-15.4,14-43.4,48.2-43.4c33.3,0,43.9,28,43.9,43.4H835.6z
		 M960,2174c-10.6,2.4-19.8,6.3-45.3,6.3c-66.1,0-81.5-66.1-81.5-100.8V2066h132.1v-11.1c0-50.2-26-87.3-80.1-87.3
		c-61.2,0-89.7,43.9-89.7,112.4c0,84.9,41,127.8,111.9,127.8c21.2,0,38.6-2.4,52.6-6.8V2174z M749.3,2175.9
		c-7.2,2.4-11.6,4.3-22.2,4.3c-33.8,0-37.6-23.6-37.6-38.6v-141.3h61.7v-27.5h-61.7v-74.3l-32.8,20.7v53.5h-37.6v27.5h37.6v148.1
		c0,41,17.4,59.3,63.7,59.3c9.6,0,19.3-1,28.9-2.4V2175.9z M512.5,1913.1h43.4v-43.4h-43.4V1913.1z M517.8,2202.5h32.8v-229.6h-32.8
		V2202.5z M391.9,2202.5h32.8v-332.8h-32.8V2202.5z"/>
</g>
</svg>
