<?xml version="1.0" encoding="UTF-8" standalone="no"?>
<svg
   xmlns:dc="http://purl.org/dc/elements/1.1/"
   xmlns:cc="http://creativecommons.org/ns#"
   xmlns:rdf="http://www.w3.org/1999/02/22-rdf-syntax-ns#"
   xmlns:svg="http://www.w3.org/2000/svg"
   xmlns="http://www.w3.org/2000/svg"
   xmlns:sodipodi="http://sodipodi.sourceforge.net/DTD/sodipodi-0.dtd"
   xmlns:inkscape="http://www.inkscape.org/namespaces/inkscape"
   version="1.1"
   x="0px"
   y="0px"
   viewBox="0 0 3312.4172 1305.7773"
   xml:space="preserve"
   id="svg376"
   sodipodi:docname="logo_lithaus_edited_cut.svg"
   width="3312.4172"
   height="1305.7773"
   inkscape:version="1.0.2 (1.0.2+r75+1)"><metadata
   id="metadata382"><rdf:RDF><cc:Work
       rdf:about=""><dc:format>image/svg+xml</dc:format><dc:type
         rdf:resource="http://purl.org/dc/dcmitype/StillImage" /><dc:title></dc:title></cc:Work></rdf:RDF></metadata><defs
   id="defs380" /><sodipodi:namedview
   pagecolor="#ffffff"
   bordercolor="#666666"
   borderopacity="1"
   objecttolerance="10"
   gridtolerance="10"
   guidetolerance="10"
   inkscape:pageopacity="0"
   inkscape:pageshadow="2"
   inkscape:window-width="1853"
   inkscape:window-height="1052"
   id="namedview378"
   showgrid="false"
   fit-margin-top="0"
   fit-margin-left="0"
   fit-margin-right="0"
   fit-margin-bottom="0"
   inkscape:zoom="0.28213368"
   inkscape:cx="1883.7418"
   inkscape:cy="1058.1707"
   inkscape:window-x="67"
   inkscape:window-y="0"
   inkscape:window-maximized="1"
   inkscape:current-layer="svg376" />
<style
   type="text/css"
   id="style2">
	.st0{fill:none;stroke:#AD1548;stroke-width:2.8346;stroke-miterlimit:10;}
	.st1{fill:none;stroke:#AD1548;stroke-miterlimit:10;}
	.st2{fill:#AD1548;}
	.st3{fill:#909793;}
</style>
<g
   id="symbol_outline"
   transform="translate(-391.9,-902.0226)">
	<path
   class="st0"
   d="m 3643.3,1108.7 c 1.5,-4.8 1.8,-8.9 0.7,-12.7 -2.5,-8.5 -10.6,-12.6 -19.9,-17.4 -3.4,-1.8 -7.2,-3.7 -11.7,-6.4 -10.3,-6.1 -16.5,-10.5 -20.2,-13.7 -1.8,-3.3 -3.1,-6.8 -3.8,-10.5 0.4,-0.3 0.8,-0.7 1.5,-1.1 3.1,-2.4 8.4,-6.3 8.1,-14.6 l -0.2,-5.5 -5.5,-0.4 c -1.6,-0.1 -3.3,-0.4 -5.1,-0.7 -1.7,-0.3 -3.5,-0.6 -5.4,-0.8 -0.1,-1.4 -0.3,-2.7 -0.4,-4.1 -0.7,-6.7 -1.4,-13.2 -1.6,-19.2 0.2,-0.1 0.5,-0.2 0.7,-0.3 1.3,-0.5 2.6,-1 3.4,-1.1 l 0.7,-12.1 c -7.1,-1.4 -8.8,-2.3 -8.8,-2.1 -0.1,-0.3 -0.1,-1.2 -0.1,-1.8 0,-2.8 -0.1,-7 -2.5,-12.4 -4.6,-10.4 -12.1,-12.8 -18.9,-14.5 -10.8,-8.9 -24.3,-12.8 -33.8,-20.2 -5.5,-6.6 -9.1,-14 -10.1,-21.3 h 4.1 l 1.6,-12 c -1,-0.3 -1.9,-0.3 -6.2,-0.2 h -11.8 -30.1 -3.4 c -0.3,0 -0.6,0 -0.9,0 0,0 0,0 0,0 h -7.5 c -4.4,-0.1 -5.2,-0.1 -6.2,0.2 l 1.6,12 h 4.1 c -1.3,10.1 -7.8,20.4 -17.3,28.4 -6.3,4.2 -13.4,7.6 -20.1,11.4 -1.6,0.5 -3.2,0.9 -4.8,1.3 -7.3,1.7 -15.6,3.7 -20.5,14.8 -2.4,5.5 -2.5,9.7 -2.5,12.5 0,0.5 0,1.3 0.2,1.3 v 0 c -0.5,0.3 -2.5,1.3 -9,2.6 l 0.7,12.1 c 0.8,0.1 2.1,0.6 3.4,1.1 0.2,0.1 0.5,0.2 0.7,0.3 -0.1,6.1 -0.8,12.6 -1.6,19.3 -0.2,1.3 -0.3,2.7 -0.4,4 -1.9,0.2 -3.7,0.5 -5.4,0.8 -1.7,0.3 -3.4,0.6 -5.1,0.7 l -5.5,0.4 -0.2,5.5 c -0.3,8.3 4.9,12.2 8.1,14.6 3.1,2.3 3.5,2.6 2.8,5.6 -0.6,2.5 -5.5,7.9 -25.8,20 -3.9,2.4 -7.7,4.3 -11.2,6 -9.4,4.8 -17.5,8.9 -19.9,17.4 -1.1,3.7 -0.8,7.9 0.7,12.7 h -12.6 c 1.5,-4.8 1.8,-8.9 0.7,-12.7 -2.5,-8.5 -10.6,-12.6 -19.9,-17.4 -3.4,-1.8 -7.2,-3.7 -11.8,-6.4 -10.1,-6 -16.3,-10.4 -20,-13.6 -1.8,-3.4 -3.1,-6.9 -3.8,-10.7 0.4,-0.3 0.8,-0.6 1.4,-1.1 3.1,-2.4 8.4,-6.3 8.1,-14.6 l -0.2,-5.5 -5.5,-0.4 c -1.6,-0.1 -3.3,-0.4 -5.1,-0.7 -1.7,-0.3 -3.5,-0.6 -5.4,-0.8 -0.1,-1.3 -0.3,-2.7 -0.4,-4 -0.7,-6.8 -1.4,-13.3 -1.6,-19.3 0.2,-0.1 0.5,-0.2 0.7,-0.3 1.3,-0.5 2.6,-1 3.4,-1.1 l 0.7,-12.1 c -7.1,-1.4 -8.8,-2.3 -8.8,-2.1 -0.1,-0.3 -0.1,-1.2 -0.1,-1.8 0,-2.8 -0.1,-7 -2.5,-12.4 -4.5,-10 -11.6,-12.6 -18.3,-14.3 -11.7,-9.9 -26.7,-13.6 -36.2,-22.6 -4.5,-6 -7.5,-12.5 -8.4,-19 h 4.1 l 1.6,-12 c -1,-0.3 -1.8,-0.3 -6.2,-0.2 h -11.8 -30.1 -2 c -0.3,0 -0.6,0 -0.9,0 0,0 0,0 0,0 h -8.9 c -4.4,-0.1 -5.2,-0.1 -6.2,0.2 l 1.6,12 h 4.1 c -1.6,12.6 -11.2,25.5 -25,34 -2,1.1 -4.1,2.2 -6.1,3.3 -0.8,0.4 -1.5,0.8 -2.3,1.2 -3,1.3 -5.9,2 -8.8,2.6 -7.3,1.7 -15.6,3.7 -20.5,14.8 -2.4,5.5 -2.5,9.7 -2.5,12.5 0,0.5 0,1.3 0.2,1.3 v 0 c -0.5,0.3 -2.5,1.3 -9,2.6 l 0.7,12.1 c 0.8,0.1 2.1,0.6 3.4,1.1 0.2,0.1 0.5,0.2 0.7,0.3 -0.1,6.1 -0.9,12.6 -1.6,19.4 -0.1,1.3 -0.3,2.6 -0.4,4 -1.9,0.2 -3.7,0.5 -5.4,0.8 -1.7,0.3 -3.4,0.6 -5.1,0.7 l -5.5,0.4 -0.2,5.5 c -0.3,8.3 4.9,12.2 8.1,14.6 3.1,2.3 3.5,2.6 2.8,5.6 -0.6,2.4 -5.4,7.8 -25.8,20 -3.9,2.4 -7.7,4.3 -11.2,6 -9.4,4.8 -17.5,8.9 -19.9,17.4 -1.1,3.7 -0.8,7.9 0.7,12.7 h -62.3 v 24.2 h 17.5 v 614.5 41.3 7.1 H 3272 v -7.1 -12.1 -98.7 -116.5 c 0,-20.3 20.3,-20.3 20.3,-20.3 h 46.2 c 20.3,0 20.3,20.3 20.3,20.3 v 116.5 117.9 H 3689 v -7.1 -41.3 -614.5 h 13.9 v -24.2 h -59.6 z"
   id="path4" />
</g>
<g
   id="windows"
   transform="translate(-391.9,-902.0226)">
	<rect
   x="3452.8999"
   y="1032.6"
   class="st1"
   width="26.200001"
   height="26.299999"
   id="rect7" />
	<rect
   x="3452.8999"
   y="1065"
   class="st1"
   width="26.200001"
   height="23.4"
   id="rect9" />
	<path
   class="st1"
   d="m 3485.2,1000.1 h 10.8 c 13.1,0 13.9,11.6 13.9,13.9 v 12.5 h -24.8 v -26.4 z"
   id="path11" />
	<rect
   x="3485.2"
   y="1032.6"
   class="st1"
   width="24.799999"
   height="26.299999"
   id="rect13" />
	<rect
   x="3485.2"
   y="1065"
   class="st1"
   width="24.799999"
   height="23.4"
   id="rect15" />
	<path
   class="st1"
   d="m 3466.9,1000.1 h 12.3 v 26.4 H 3453 V 1014 c -0.1,-13 11.5,-13.8 13.9,-13.9 z"
   id="path17" />
	<rect
   x="3153"
   y="1065"
   class="st1"
   width="26"
   height="23.4"
   id="rect19" />
	<rect
   x="3153"
   y="1032.6"
   class="st1"
   width="26"
   height="26.299999"
   id="rect21" />
	<path
   class="st1"
   d="m 3165,1000.1 c 13.1,0 13.9,11.6 13.9,13.9 v 12.5 h -26 v -26.4 z"
   id="path23" />
	<rect
   x="3121.8999"
   y="1065"
   class="st1"
   width="25"
   height="23.4"
   id="rect25" />
	<rect
   x="3121.8999"
   y="1032.6"
   class="st1"
   width="25"
   height="26.299999"
   id="rect27" />
	<path
   class="st1"
   d="m 3135.8,1000.1 h 11.1 v 26.4 h -25 V 1014 c 0,-13 11.6,-13.8 13.9,-13.9 z"
   id="path29" />
	<rect
   x="3588.6001"
   y="1453.6"
   class="st1"
   width="19"
   height="16.9"
   id="rect31" />
	<path
   class="st1"
   d="m 3527.5,1195.6 h -19.4 v -21.2 h 6.4 c 12.2,0 13,10.9 13,13 z"
   id="path33" />
	<rect
   x="3450.7"
   y="1403.6"
   class="st1"
   width="18.200001"
   height="22.1"
   id="rect35" />
	<rect
   x="3428.6001"
   y="1403.6"
   class="st1"
   width="19"
   height="22.1"
   id="rect37" />
	<rect
   x="3428.6001"
   y="1435.2"
   class="st1"
   width="19"
   height="15.4"
   id="rect39" />
	<rect
   x="3380.3999"
   y="1380.6"
   class="st1"
   width="19.4"
   height="20"
   id="rect41" />
	<rect
   x="3402.8"
   y="1380.6"
   class="st1"
   width="16.4"
   height="20"
   id="rect43" />
	<path
   class="st1"
   d="m 3403.5,1333.7 h 15.7 v 16.3 h -16.4 v -16.2 c 0.3,0 0.6,-0.1 0.7,-0.1 z"
   id="path45" />
	<path
   class="st1"
   d="m 3385.4,1174.4 h 9.7 c 12.2,0 13,10.9 13,13 v 8.1 h -22.7 z"
   id="path47" />
	<path
   class="st1"
   d="m 3380.1,1195.6 h -21.9 v -8.1 c 0,-12.2 10.9,-13 13,-13 h 8.9 z"
   id="path49" />
	<path
   class="st1"
   d="m 3445.8,1333.7 c 0.7,0 1.2,0.2 1.9,0.2 v 16.1 h -19 v -16.3 z"
   id="path51" />
	<rect
   x="3402.8"
   y="1353.1"
   class="st1"
   width="16.4"
   height="18.200001"
   id="rect53" />
	<rect
   x="3402.8"
   y="1403.6"
   class="st1"
   width="16.4"
   height="22.1"
   id="rect55" />
	<rect
   x="3428.6001"
   y="1380.6"
   class="st1"
   width="19"
   height="20"
   id="rect57" />
	<rect
   x="3428.6001"
   y="1353.1"
   class="st1"
   width="19"
   height="18.200001"
   id="rect59" />
	<path
   class="st1"
   d="m 3450.7,1353.1 h 17.8 c 0.2,1.6 0.3,3 0.4,3.7 v 14.4 h -18.2 z"
   id="path61" />
	<path
   class="st1"
   d="m 3450.7,1350 v -15.7 c 11.3,1.8 15.6,9.6 17.2,15.7 z"
   id="path63" />
	<rect
   x="3434.7"
   y="1231.7"
   class="st1"
   width="18.6"
   height="20"
   id="rect65" />
	<rect
   x="3434.7"
   y="1200.9"
   class="st1"
   width="18.6"
   height="25.5"
   id="rect67" />
	<path
   class="st1"
   d="m 3434.7,1195.6 v -8.1 c 0,-12.2 10.8,-13 13,-13 h 5.6 v 21.2 h -18.6 z"
   id="path69" />
	<rect
   x="3458.7"
   y="1200.9"
   class="st1"
   width="19.4"
   height="25.5"
   id="rect71" />
	<rect
   x="3458.7"
   y="1174.4"
   class="st1"
   width="19.4"
   height="21.200001"
   id="rect73" />
	<rect
   x="3483.3999"
   y="1174.4"
   class="st1"
   width="19.4"
   height="21.200001"
   id="rect75" />
	<rect
   x="3358.2"
   y="1200.9"
   class="st1"
   width="21.9"
   height="25.5"
   id="rect77" />
	<rect
   x="3385.3999"
   y="1200.9"
   class="st1"
   width="22.700001"
   height="25.5"
   id="rect79" />
	<rect
   x="3385.3999"
   y="1231.7"
   class="st1"
   width="22.700001"
   height="20"
   id="rect81" />
	<path
   class="st1"
   d="m 3399.8,1334.1 v 15.9 h -18.6 c 2.8,-11.9 12.8,-15.1 18.6,-15.9 z"
   id="path83" />
	<path
   class="st1"
   d="m 3380.4,1356.8 c 0,-1.4 0.3,-2.5 0.4,-3.7 h 18.9 v 18.2 h -19.4 v -14.5 z"
   id="path85" />
	<rect
   x="3380.3999"
   y="1403.6"
   class="st1"
   width="19.4"
   height="22.1"
   id="rect87" />
	<rect
   x="3380.3999"
   y="1435.2"
   class="st1"
   width="19.4"
   height="15.4"
   id="rect89" />
	<rect
   x="3402.8"
   y="1435.2"
   class="st1"
   width="16.4"
   height="15.4"
   id="rect91" />
	<rect
   x="3402.8"
   y="1453.6"
   class="st1"
   width="16.4"
   height="16.9"
   id="rect93" />
	<rect
   x="3428.6001"
   y="1453.6"
   class="st1"
   width="19"
   height="16.9"
   id="rect95" />
	<rect
   x="3450.7"
   y="1453.6"
   class="st1"
   width="18.200001"
   height="16.9"
   id="rect97" />
	<rect
   x="3450.7"
   y="1435.2"
   class="st1"
   width="18.200001"
   height="15.4"
   id="rect99" />
	<rect
   x="3450.7"
   y="1380.6"
   class="st1"
   width="18.200001"
   height="20"
   id="rect101" />
	<rect
   x="3458.7"
   y="1231.7"
   class="st1"
   width="19.4"
   height="20"
   id="rect103" />
	<rect
   x="3483.3999"
   y="1231.7"
   class="st1"
   width="19.4"
   height="20"
   id="rect105" />
	<rect
   x="3483.3999"
   y="1200.9"
   class="st1"
   width="19.4"
   height="25.5"
   id="rect107" />
	<rect
   x="3508.1001"
   y="1200.9"
   class="st1"
   width="19.4"
   height="25.5"
   id="rect109" />
	<rect
   x="3562.8"
   y="1403.6"
   class="st1"
   width="16.4"
   height="22.1"
   id="rect111" />
	<rect
   x="3562.8"
   y="1435.2"
   class="st1"
   width="16.4"
   height="15.4"
   id="rect113" />
	<rect
   x="3540.3999"
   y="1380.6"
   class="st1"
   width="19.4"
   height="20"
   id="rect115" />
	<rect
   x="3562.8"
   y="1380.6"
   class="st1"
   width="16.4"
   height="20"
   id="rect117" />
	<rect
   x="3562.8"
   y="1353.1"
   class="st1"
   width="16.4"
   height="18.200001"
   id="rect119" />
	<path
   class="st1"
   d="m 3562.8,1350 v -16.2 c 0.2,0 0.5,0 0.7,0 h 15.7 v 16.3 h -16.4 z"
   id="path121" />
	<rect
   x="3554.8"
   y="1231.7"
   class="st1"
   width="21.9"
   height="20"
   id="rect123" />
	<rect
   x="3582"
   y="1231.7"
   class="st1"
   width="22.700001"
   height="20"
   id="rect125" />
	<rect
   x="3582"
   y="1200.9"
   class="st1"
   width="22.700001"
   height="25.5"
   id="rect127" />
	<path
   class="st1"
   d="M 3604.7,1195.6 H 3582 v -21.2 h 9.7 c 12.2,0 13,10.9 13,13 z"
   id="path129" />
	<path
   class="st1"
   d="m 3576.7,1195.6 h -21.9 v -8.1 c 0,-12.2 10.9,-13 13,-13 h 8.9 z"
   id="path131" />
	<rect
   x="3554.8"
   y="1200.9"
   class="st1"
   width="21.9"
   height="25.5"
   id="rect133" />
	<path
   class="st1"
   d="m 3559.8,1334.1 v 15.9 h -18.6 c 2.8,-11.9 12.7,-15.1 18.6,-15.9 z"
   id="path135" />
	<path
   class="st1"
   d="m 3540.4,1356.8 c 0,-1.4 0.3,-2.5 0.4,-3.7 h 18.9 v 18.2 h -19.4 v -14.5 z"
   id="path137" />
	<rect
   x="3540.3999"
   y="1403.6"
   class="st1"
   width="19.4"
   height="22.1"
   id="rect139" />
	<rect
   x="3588.6001"
   y="1403.6"
   class="st1"
   width="19"
   height="22.1"
   id="rect141" />
	<rect
   x="3588.6001"
   y="1380.6"
   class="st1"
   width="19"
   height="20"
   id="rect143" />
	<rect
   x="3588.6001"
   y="1353.1"
   class="st1"
   width="19"
   height="18.200001"
   id="rect145" />
	<path
   class="st1"
   d="m 3588.6,1350 v -16.3 h 17.2 c 0.7,0 1.2,0.2 1.9,0.2 v 16.1 z"
   id="path147" />
	<path
   class="st1"
   d="m 3610.6,1334.3 c 11.3,1.8 15.6,9.6 17.2,15.7 h -17.2 z"
   id="path149" />
	<rect
   x="3540.3999"
   y="1435.2"
   class="st1"
   width="19.4"
   height="15.4"
   id="rect151" />
	<rect
   x="3540.3999"
   y="1453.6"
   class="st1"
   width="19.4"
   height="16.9"
   id="rect153" />
	<rect
   x="3562.8"
   y="1453.6"
   class="st1"
   width="16.4"
   height="16.9"
   id="rect155" />
	<rect
   x="3588.6001"
   y="1435.2"
   class="st1"
   width="19"
   height="15.4"
   id="rect157" />
	<rect
   x="3610.6001"
   y="1435.2"
   class="st1"
   width="18.200001"
   height="15.4"
   id="rect159" />
	<rect
   x="3610.6001"
   y="1403.6"
   class="st1"
   width="18.200001"
   height="22.1"
   id="rect161" />
	<rect
   x="3610.6001"
   y="1380.6"
   class="st1"
   width="18.200001"
   height="20"
   id="rect163" />
	<path
   class="st1"
   d="M 3610.6,1371.2 V 1353 h 17.8 c 0.2,1.6 0.3,3 0.4,3.7 v 14.4 h -18.2 z"
   id="path165" />
	<path
   class="st1"
   d="M 3275.7,1195.6 H 3253 v -21.2 h 9.7 c 12.2,0 13,10.9 13,13 z"
   id="path167" />
	<rect
   x="3189.7"
   y="1453.6"
   class="st1"
   width="16.4"
   height="16.9"
   id="rect169" />
	<rect
   x="3055.5"
   y="1453.6"
   class="st1"
   width="19"
   height="16.9"
   id="rect171" />
	<rect
   x="3029.7"
   y="1453.6"
   class="st1"
   width="16.4"
   height="16.9"
   id="rect173" />
	<rect
   x="3129.6001"
   y="1174.4"
   class="st1"
   width="19.4"
   height="21.200001"
   id="rect175" />
	<path
   class="st1"
   d="m 3124.3,1195.6 h -18.6 v -8.1 c 0,-12.2 10.9,-13 13,-13 h 5.6 z"
   id="path177" />
	<rect
   x="3154.3"
   y="1174.4"
   class="st1"
   width="19.4"
   height="21.200001"
   id="rect179" />
	<rect
   x="3167.3"
   y="1380.6"
   class="st1"
   width="19.4"
   height="20"
   id="rect181" />
	<rect
   x="3189.7"
   y="1380.6"
   class="st1"
   width="16.4"
   height="20"
   id="rect183" />
	<rect
   x="3189.7"
   y="1353.1"
   class="st1"
   width="16.4"
   height="18.200001"
   id="rect185" />
	<path
   class="st1"
   d="m 3189.7,1350 v -16.2 c 0.2,0 0.5,0 0.7,0 h 15.7 v 16.3 h -16.4 z"
   id="path187" />
	<path
   class="st1"
   d="M 3198.4,1195.6 H 3179 v -21.2 h 6.4 c 12.2,0 13,10.9 13,13 z"
   id="path189" />
	<rect
   x="3154.3"
   y="1200.9"
   class="st1"
   width="19.4"
   height="25.5"
   id="rect191" />
	<rect
   x="3179.1001"
   y="1200.9"
   class="st1"
   width="19.4"
   height="25.5"
   id="rect193" />
	<rect
   x="3179.1001"
   y="1231.7"
   class="st1"
   width="19.4"
   height="20"
   id="rect195" />
	<path
   class="st1"
   d="m 3186.7,1334.1 v 15.9 h -18.6 c 2.8,-11.9 12.7,-15.1 18.6,-15.9 z"
   id="path197" />
	<path
   class="st1"
   d="m 3167.3,1356.8 c 0,-1.4 0.3,-2.5 0.4,-3.7 h 18.9 v 18.2 h -19.4 v -14.5 z"
   id="path199" />
	<rect
   x="3167.3"
   y="1403.6"
   class="st1"
   width="19.4"
   height="22.1"
   id="rect201" />
	<rect
   x="3189.7"
   y="1403.6"
   class="st1"
   width="16.4"
   height="22.1"
   id="rect203" />
	<rect
   x="3215.5"
   y="1403.6"
   class="st1"
   width="19"
   height="22.1"
   id="rect205" />
	<rect
   x="3215.5"
   y="1380.6"
   class="st1"
   width="19"
   height="20"
   id="rect207" />
	<rect
   x="3215.5"
   y="1353.1"
   class="st1"
   width="19"
   height="18.200001"
   id="rect209" />
	<path
   class="st1"
   d="m 3215.5,1350 v -16.3 h 17.2 c 0.7,0 1.2,0.2 1.9,0.2 v 16.1 z"
   id="path211" />
	<path
   class="st1"
   d="m 3247.7,1174.4 v 21.2 h -21.9 v -8.1 c 0,-12.2 10.9,-13 13,-13 h 8.9 z"
   id="path213" />
	<rect
   x="3056.3999"
   y="1231.7"
   class="st1"
   width="22.700001"
   height="20"
   id="rect215" />
	<rect
   x="3007.3"
   y="1380.6"
   class="st1"
   width="19.4"
   height="20"
   id="rect217" />
	<rect
   x="3029.7"
   y="1380.6"
   class="st1"
   width="16.4"
   height="20"
   id="rect219" />
	<rect
   x="3029.7"
   y="1353.1"
   class="st1"
   width="16.4"
   height="18.200001"
   id="rect221" />
	<path
   class="st1"
   d="m 3029.7,1350 v -16.2 c 0.2,0 0.5,0 0.7,0 h 15.7 v 16.3 h -16.4 z"
   id="path223" />
	<rect
   x="3029.2"
   y="1231.7"
   class="st1"
   width="21.9"
   height="20"
   id="rect225" />
	<rect
   x="3056.3999"
   y="1200.9"
   class="st1"
   width="22.700001"
   height="25.5"
   id="rect227" />
	<path
   class="st1"
   d="m 3079.1,1195.6 h -22.7 v -21.2 h 9.7 c 12.2,0 13,10.9 13,13 z"
   id="path229" />
	<path
   class="st1"
   d="m 3051.1,1195.6 h -21.9 v -8.1 c 0,-12.2 10.8,-13 13,-13 h 8.9 z"
   id="path231" />
	<rect
   x="3029.2"
   y="1200.9"
   class="st1"
   width="21.9"
   height="25.5"
   id="rect233" />
	<path
   class="st1"
   d="m 3026.7,1334.1 v 15.9 h -18.6 c 2.8,-11.9 12.7,-15.1 18.6,-15.9 z"
   id="path235" />
	<path
   class="st1"
   d="m 3007.3,1356.8 c 0,-1.4 0.3,-2.5 0.4,-3.7 h 19 v 18.2 h -19.4 z"
   id="path237" />
	<rect
   x="3007.3"
   y="1403.6"
   class="st1"
   width="19.4"
   height="22.1"
   id="rect239" />
	<rect
   x="3029.7"
   y="1403.6"
   class="st1"
   width="16.4"
   height="22.1"
   id="rect241" />
	<rect
   x="3055.5"
   y="1403.6"
   class="st1"
   width="19"
   height="22.1"
   id="rect243" />
	<rect
   x="3055.5"
   y="1380.6"
   class="st1"
   width="19"
   height="20"
   id="rect245" />
	<rect
   x="3055.5"
   y="1353.1"
   class="st1"
   width="19"
   height="18.200001"
   id="rect247" />
	<path
   class="st1"
   d="m 3055.5,1350 v -16.3 h 17.2 c 0.7,0 1.2,0.2 1.9,0.2 v 16.1 z"
   id="path249" />
	<path
   class="st1"
   d="m 3077.5,1334.3 c 11.3,1.8 15.6,9.6 17.2,15.7 h -17.2 z"
   id="path251" />
	<rect
   x="3007.3"
   y="1435.2"
   class="st1"
   width="19.4"
   height="15.4"
   id="rect253" />
	<rect
   x="3029.7"
   y="1435.2"
   class="st1"
   width="16.4"
   height="15.4"
   id="rect255" />
	<rect
   x="3055.5"
   y="1435.2"
   class="st1"
   width="19"
   height="15.4"
   id="rect257" />
	<rect
   x="3077.5"
   y="1435.2"
   class="st1"
   width="18.200001"
   height="15.4"
   id="rect259" />
	<rect
   x="3077.5"
   y="1403.6"
   class="st1"
   width="18.200001"
   height="22.1"
   id="rect261" />
	<rect
   x="3077.5"
   y="1380.6"
   class="st1"
   width="18.200001"
   height="20"
   id="rect263" />
	<path
   class="st1"
   d="M 3077.5,1371.2 V 1353 h 17.8 c 0.2,1.6 0.3,3 0.4,3.7 v 14.4 h -18.2 z"
   id="path265" />
	<rect
   x="3105.7"
   y="1200.9"
   class="st1"
   width="18.6"
   height="25.5"
   id="rect267" />
	<rect
   x="3129.6001"
   y="1200.9"
   class="st1"
   width="19.4"
   height="25.5"
   id="rect269" />
	<rect
   x="3129.6001"
   y="1231.7"
   class="st1"
   width="19.4"
   height="20"
   id="rect271" />
	<rect
   x="3154.3"
   y="1231.7"
   class="st1"
   width="19.4"
   height="20"
   id="rect273" />
	<rect
   x="3167.3"
   y="1435.2"
   class="st1"
   width="19.4"
   height="15.4"
   id="rect275" />
	<rect
   x="3189.7"
   y="1435.2"
   class="st1"
   width="16.4"
   height="15.4"
   id="rect277" />
	<rect
   x="3215.5"
   y="1453.6"
   class="st1"
   width="19"
   height="16.9"
   id="rect279" />
	<rect
   x="3215.5"
   y="1435.2"
   class="st1"
   width="19"
   height="15.4"
   id="rect281" />
	<rect
   x="3237.5"
   y="1435.2"
   class="st1"
   width="18.200001"
   height="15.4"
   id="rect283" />
	<rect
   x="3237.5"
   y="1403.6"
   class="st1"
   width="18.200001"
   height="22.1"
   id="rect285" />
	<rect
   x="3237.5"
   y="1380.6"
   class="st1"
   width="18.200001"
   height="20"
   id="rect287" />
	<path
   class="st1"
   d="M 3237.5,1371.2 V 1353 h 17.8 c 0.2,1.6 0.3,3 0.4,3.7 v 14.4 h -18.2 z"
   id="path289" />
	<path
   class="st1"
   d="m 3237.5,1350 v -15.7 c 11.3,1.8 15.6,9.6 17.2,15.7 z"
   id="path291" />
	<rect
   x="3225.8"
   y="1231.7"
   class="st1"
   width="21.9"
   height="20"
   id="rect293" />
	<rect
   x="3225.8"
   y="1200.9"
   class="st1"
   width="21.9"
   height="25.5"
   id="rect295" />
	<rect
   x="3253"
   y="1200.9"
   class="st1"
   width="22.700001"
   height="25.5"
   id="rect297" />
	<rect
   x="3007.3"
   y="1453.6"
   class="st1"
   width="19.4"
   height="16.9"
   id="rect299" />
	<rect
   x="3018.8999"
   y="1666.5"
   class="st1"
   width="31.9"
   height="53.599998"
   id="rect301" />
	<rect
   x="3018.8999"
   y="1604.5"
   class="st1"
   width="31.9"
   height="50"
   id="rect303" />
	<path
   class="st1"
   d="m 3050.8,1592.4 h -31.9 v -31.1 c 0,-14 12.4,-14.9 14.9,-14.9 h 17 z"
   id="path305" />
	<rect
   x="3062.8999"
   y="1666.5"
   class="st1"
   width="32"
   height="53.599998"
   id="rect307" />
	<rect
   x="3062.8999"
   y="1604.5"
   class="st1"
   width="32"
   height="50"
   id="rect309" />
	<path
   class="st1"
   d="m 3094.9,1592.4 h -32 v -46 h 17.1 c 14,0 14.9,12.4 14.9,14.9 z"
   id="path311" />
	<rect
   x="3077.5"
   y="1453.6"
   class="st1"
   width="18.200001"
   height="16.9"
   id="rect313" />
	<rect
   x="3105.7"
   y="1231.7"
   class="st1"
   width="18.6"
   height="20"
   id="rect315" />
	<rect
   x="3130.3"
   y="1666.5"
   class="st1"
   width="31.9"
   height="53.599998"
   id="rect317" />
	<rect
   x="3130.3"
   y="1604.5"
   class="st1"
   width="31.9"
   height="50"
   id="rect319" />
	<path
   class="st1"
   d="m 3162.3,1592.4 h -31.9 v -31.1 c 0,-14 12.4,-14.9 14.9,-14.9 h 17 z"
   id="path321" />
	<rect
   x="3167.3"
   y="1453.6"
   class="st1"
   width="19.4"
   height="16.9"
   id="rect323" />
	<rect
   x="3174.3999"
   y="1666.5"
   class="st1"
   width="32"
   height="53.599998"
   id="rect325" />
	<rect
   x="3174.3999"
   y="1604.5"
   class="st1"
   width="32"
   height="50"
   id="rect327" />
	<path
   class="st1"
   d="m 3206.3,1592.4 h -32 v -46 h 17.1 c 14,0 14.9,12.4 14.9,14.9 z"
   id="path329" />
	<rect
   x="3237.5"
   y="1453.6"
   class="st1"
   width="18.200001"
   height="16.9"
   id="rect331" />
	<rect
   x="3253"
   y="1231.7"
   class="st1"
   width="22.700001"
   height="20"
   id="rect333" />
	<rect
   x="3358.2"
   y="1231.7"
   class="st1"
   width="21.9"
   height="20"
   id="rect335" />
	<rect
   x="3380.3999"
   y="1453.6"
   class="st1"
   width="19.4"
   height="16.9"
   id="rect337" />
	<rect
   x="3423.1001"
   y="1666.5"
   class="st1"
   width="31.9"
   height="53.599998"
   id="rect339" />
	<rect
   x="3423.1001"
   y="1604.5"
   class="st1"
   width="31.9"
   height="50"
   id="rect341" />
	<path
   class="st1"
   d="m 3455.1,1592.4 h -31.9 v -31.1 c 0,-14 12.4,-14.9 14.9,-14.9 h 17.1 v 46 z"
   id="path343" />
	<rect
   x="3467.2"
   y="1666.5"
   class="st1"
   width="31.9"
   height="53.599998"
   id="rect345" />
	<rect
   x="3467.2"
   y="1604.5"
   class="st1"
   width="31.9"
   height="50"
   id="rect347" />
	<path
   class="st1"
   d="m 3499.1,1592.4 h -31.9 v -46 h 17.1 c 14,0 14.8,12.4 14.9,14.9 v 31.1 z"
   id="path349" />
	<rect
   x="3508.1001"
   y="1231.7"
   class="st1"
   width="19.4"
   height="20"
   id="rect351" />
	<rect
   x="3534.6001"
   y="1666.5"
   class="st1"
   width="31.9"
   height="53.599998"
   id="rect353" />
	<rect
   x="3534.6001"
   y="1604.5"
   class="st1"
   width="31.9"
   height="50"
   id="rect355" />
	<path
   class="st1"
   d="m 3566.6,1592.4 h -31.9 v -31.1 c 0,-14 12.4,-14.9 14.9,-14.9 h 17 z"
   id="path357" />
	<rect
   x="3578.7"
   y="1666.5"
   class="st1"
   width="31.9"
   height="53.599998"
   id="rect359" />
	<rect
   x="3578.7"
   y="1604.5"
   class="st1"
   width="31.9"
   height="50"
   id="rect361" />
	<path
   class="st1"
   d="m 3610.6,1592.4 h -31.9 v -46 h 17.1 c 14,0 14.8,12.4 14.9,14.9 v 31.1 z"
   id="path363" />
	<rect
   x="3610.6001"
   y="1453.6"
   class="st1"
   width="18.200001"
   height="16.9"
   id="rect365" />
</g>
<g
   id="symbol"
   transform="translate(-391.9,-902.0226)">
	<path
   class="st2"
   d="m 3643.3,1108.7 c 1.5,-4.8 1.8,-8.9 0.7,-12.7 -2.5,-8.5 -10.6,-12.6 -19.9,-17.4 -3.4,-1.8 -7.2,-3.7 -11.7,-6.4 -10.3,-6.1 -16.5,-10.5 -20.2,-13.7 -1.8,-3.3 -3.1,-6.8 -3.8,-10.5 0.4,-0.3 0.8,-0.7 1.5,-1.1 3.1,-2.4 8.4,-6.3 8.1,-14.6 l -0.2,-5.5 -5.5,-0.4 c -1.6,-0.1 -3.3,-0.4 -5.1,-0.7 -1.7,-0.3 -3.5,-0.6 -5.4,-0.8 -0.1,-1.4 -0.3,-2.7 -0.4,-4.1 -0.7,-6.7 -1.4,-13.2 -1.6,-19.2 0.2,-0.1 0.5,-0.2 0.7,-0.3 1.3,-0.5 2.6,-1 3.4,-1.1 l 0.7,-12.1 c -7.1,-1.4 -8.8,-2.3 -8.8,-2.1 -0.1,-0.3 -0.1,-1.2 -0.1,-1.8 0,-2.8 -0.1,-7 -2.5,-12.4 -4.6,-10.4 -12.1,-12.8 -18.9,-14.5 -10.8,-8.9 -24.3,-12.8 -33.8,-20.2 -5.5,-6.6 -9.1,-14 -10.1,-21.3 h 4.1 l 1.6,-12 c -1,-0.3 -1.9,-0.3 -6.2,-0.2 h -11.8 -30.1 -3.4 c -0.3,0 -0.6,0 -0.9,0 0,0 0,0 0,0 h -7.5 c -4.4,-0.1 -5.2,-0.1 -6.2,0.2 l 1.6,12 h 4.1 c -1.3,10.1 -7.8,20.4 -17.3,28.4 -6.3,4.2 -13.4,7.6 -20.1,11.4 -1.6,0.5 -3.2,0.9 -4.8,1.3 -7.3,1.7 -15.6,3.7 -20.5,14.8 -2.4,5.5 -2.5,9.7 -2.5,12.5 0,0.5 0,1.3 0.2,1.3 v 0 c -0.5,0.3 -2.5,1.3 -9,2.6 l 0.7,12.1 c 0.8,0.1 2.1,0.6 3.4,1.1 0.2,0.1 0.5,0.2 0.7,0.3 -0.1,6.1 -0.8,12.6 -1.6,19.3 -0.2,1.3 -0.3,2.7 -0.4,4 -1.9,0.2 -3.7,0.5 -5.4,0.8 -1.7,0.3 -3.4,0.6 -5.1,0.7 l -5.5,0.4 -0.2,5.5 c -0.3,8.3 4.9,12.2 8.1,14.6 3.1,2.3 3.5,2.6 2.8,5.6 -0.6,2.5 -5.5,7.9 -25.8,20 -3.9,2.4 -7.7,4.3 -11.2,6 -9.4,4.8 -17.5,8.9 -19.9,17.4 -1.1,3.7 -0.8,7.9 0.7,12.7 h -12.6 c 1.5,-4.8 1.8,-8.9 0.7,-12.7 -2.5,-8.5 -10.6,-12.6 -19.9,-17.4 -3.4,-1.8 -7.2,-3.7 -11.8,-6.4 -10.1,-6 -16.3,-10.4 -20,-13.6 -1.8,-3.4 -3.1,-6.9 -3.8,-10.7 0.4,-0.3 0.8,-0.6 1.4,-1.1 3.1,-2.4 8.4,-6.3 8.1,-14.6 l -0.2,-5.5 -5.5,-0.4 c -1.6,-0.1 -3.3,-0.4 -5.1,-0.7 -1.7,-0.3 -3.5,-0.6 -5.4,-0.8 -0.1,-1.3 -0.3,-2.7 -0.4,-4 -0.7,-6.8 -1.4,-13.3 -1.6,-19.3 0.2,-0.1 0.5,-0.2 0.7,-0.3 1.3,-0.5 2.6,-1 3.4,-1.1 l 0.7,-12.1 c -7.1,-1.4 -8.8,-2.3 -8.8,-2.1 -0.1,-0.3 -0.1,-1.2 -0.1,-1.8 0,-2.8 -0.1,-7 -2.5,-12.4 -4.5,-10 -11.6,-12.6 -18.3,-14.3 -11.7,-9.9 -26.7,-13.6 -36.2,-22.6 -4.5,-6 -7.5,-12.5 -8.4,-19 h 4.1 l 1.6,-12 c -1,-0.3 -1.8,-0.3 -6.2,-0.2 h -11.8 -30.1 -2 c -0.3,0 -0.6,0 -0.9,0 0,0 0,0 0,0 h -8.9 c -4.4,-0.1 -5.2,-0.1 -6.2,0.2 l 1.6,12 h 4.1 c -1.6,12.6 -11.2,25.5 -25,34 -2,1.1 -4.1,2.2 -6.1,3.3 -0.8,0.4 -1.5,0.8 -2.3,1.2 -3,1.3 -5.9,2 -8.8,2.6 -7.3,1.7 -15.6,3.7 -20.5,14.8 -2.4,5.5 -2.5,9.7 -2.5,12.5 0,0.5 0,1.3 0.2,1.3 v 0 c -0.5,0.3 -2.5,1.3 -9,2.6 l 0.7,12.1 c 0.8,0.1 2.1,0.6 3.4,1.1 0.2,0.1 0.5,0.2 0.7,0.3 -0.1,6.1 -0.9,12.6 -1.6,19.4 -0.1,1.3 -0.3,2.6 -0.4,4 -1.9,0.2 -3.7,0.5 -5.4,0.8 -1.7,0.3 -3.4,0.6 -5.1,0.7 l -5.5,0.4 -0.2,5.5 c -0.3,8.3 4.9,12.2 8.1,14.6 3.1,2.3 3.5,2.6 2.8,5.6 -0.6,2.4 -5.4,7.8 -25.8,20 -3.9,2.4 -7.7,4.3 -11.2,6 -9.4,4.8 -17.5,8.9 -19.9,17.4 -1.1,3.7 -0.8,7.9 0.7,12.7 h -62.3 v 24.2 h 17.5 v 614.5 41.3 7.1 H 3272 v -7.1 -12.1 -98.7 -116.5 c 0,-20.3 20.3,-20.3 20.3,-20.3 h 46.2 c 20.3,0 20.3,20.3 20.3,20.3 v 116.5 117.9 H 3689 v -7.1 -41.3 -614.5 h 13.9 v -24.2 h -59.6 z m -190.4,-49.8 v -26.3 h 26.2 v 26.3 z m 26.3,6.1 v 23.4 H 3453 V 1065 Z m 6,-64.9 h 10.8 c 13.1,0 13.9,11.6 13.9,13.9 v 12.5 h -24.8 v -26.4 z m 0,32.5 h 24.8 v 26.3 h -24.8 z m 0,32.4 h 24.8 v 23.4 h -24.8 z m -18.3,-64.9 h 12.3 v 26.4 H 3453 V 1014 c -0.1,-13 11.5,-13.8 13.9,-13.9 z M 3153,1088.4 V 1065 h 26 v 23.4 z m 0,-29.5 v -26.3 h 26 v 26.3 z m 12,-58.8 c 13.1,0 13.9,11.6 13.9,13.9 v 12.5 h -26 v -26.4 z m -43.1,88.3 V 1065 h 25 v 23.4 z m 0,-29.5 v -26.3 h 25 v 26.3 z m 13.9,-58.8 h 11.1 v 26.4 h -25 V 1014 c 0,-13 11.6,-13.8 13.9,-13.9 z m 452.8,470.4 v -16.9 h 19 v 16.9 z m -61.1,-274.9 h -19.4 v -21.2 h 6.4 c 12.2,0 13,10.9 13,13 z m -58.7,230.2 h -18.2 v -22.1 h 18.2 z m -21.2,0 h -19 v -22.1 h 19 z m 0,9.4 v 15.4 h -19 v -15.4 z m -67.2,-54.6 h 19.4 v 20 h -19.4 z m 22.4,0 h 16.4 v 20 h -16.4 z m 0.7,-46.9 h 15.7 v 16.3 h -16.4 v -16.2 c 0.3,0 0.6,-0.1 0.7,-0.1 z m -18.1,-159.3 h 9.7 c 12.2,0 13,10.9 13,13 v 8.1 h -22.7 z m -5.3,21.2 h -21.9 v -8.1 c 0,-12.2 10.9,-13 13,-13 h 8.9 z m 65.7,138.1 c 0.7,0 1.2,0.2 1.9,0.2 v 16.1 h -19 v -16.3 z m -26.6,19.4 v 18.2 h -16.4 v -18.2 z m 0,50.5 v 22.1 h -16.4 v -22.1 z m 9.4,-3 v -20 h 19 v 20 z m 0,-29.4 V 1353 h 19 v 18.2 z m 22.1,-18.1 h 17.8 c 0.2,1.6 0.3,3 0.4,3.7 v 14.4 h -18.2 z m 0,-3.1 v -15.7 c 11.3,1.8 15.6,9.6 17.2,15.7 z m -16,-98.4 v -20 h 18.6 v 20 z m 0,-25.2 v -25.5 h 18.6 v 25.5 z m 0,-30.8 v -8.1 c 0,-12.2 10.8,-13 13,-13 h 5.6 v 21.2 h -18.6 z m 24,5.3 h 19.4 v 25.5 h -19.4 z m 0,-5.3 v -21.2 h 19.4 v 21.2 z m 24.7,-21.2 h 19.4 v 21.2 h -19.4 z m -125.2,26.5 h 21.9 v 25.5 h -21.9 z m 27.2,0 h 22.7 v 25.5 h -22.7 z m 22.7,30.8 v 20 h -22.7 v -20 z m -8.3,102.4 v 15.9 h -18.6 c 2.8,-11.9 12.8,-15.1 18.6,-15.9 z m -19.4,22.7 c 0,-1.4 0.3,-2.5 0.4,-3.7 h 18.9 v 18.2 h -19.4 v -14.5 z m 0,46.8 h 19.4 v 22.1 h -19.4 z m 0,31.6 h 19.4 v 15.4 h -19.4 z m 22.4,0 h 16.4 v 15.4 h -16.4 z m 16.4,18.4 v 16.9 h -16.4 v -16.9 z m 9.4,0 h 19 v 16.9 h -19 z m 22.1,0 h 18.2 v 16.9 h -18.2 z m 18.1,-3 h -18.2 v -15.4 h 18.2 z m 0,-50 h -18.2 v -20 h 18.2 z m -10.1,-149 v -20 h 19.4 v 20 z m 24.7,-19.9 h 19.4 v 20 h -19.4 z m 0,-5.3 v -25.5 h 19.4 v 25.5 z m 24.7,-25.5 h 19.4 v 25.5 h -19.4 z m 54.7,224.9 v -22.1 h 16.4 v 22.1 z m 16.4,9.4 v 15.4 h -16.4 v -15.4 z m -38.8,-54.6 h 19.4 v 20 h -19.4 z m 22.4,0 h 16.4 v 20 h -16.4 z m 0,-9.4 V 1353 h 16.4 v 18.2 z m 0,-21.2 v -16.2 c 0.2,0 0.5,0 0.7,0 h 15.7 v 16.3 h -16.4 z m -8,-118.3 h 21.9 v 20 h -21.9 z m 27.2,19.9 v -20 h 22.7 v 20 z m 22.7,-25.2 H 3582 v -25.5 h 22.7 z m 0,-30.8 H 3582 v -21.2 h 9.7 c 12.2,0 13,10.9 13,13 z m -28,0 h -21.9 v -8.1 c 0,-12.2 10.9,-13 13,-13 h 8.9 z m -21.9,5.3 h 21.9 v 25.5 h -21.9 z m 5,133.2 v 15.9 h -18.6 c 2.8,-11.9 12.7,-15.1 18.6,-15.9 z m -19.4,22.7 c 0,-1.4 0.3,-2.5 0.4,-3.7 h 18.9 v 18.2 h -19.4 v -14.5 z m 0,46.8 h 19.4 v 22.1 h -19.4 z m 48.2,0 h 19 v 22.1 h -19 z m 0,-3 v -20 h 19 v 20 z m 0,-29.4 V 1353 h 19 v 18.2 z m 0,-21.2 v -16.3 h 17.2 c 0.7,0 1.2,0.2 1.9,0.2 v 16.1 z m 22,-15.7 c 11.3,1.8 15.6,9.6 17.2,15.7 h -17.2 z m -50.8,100.9 v 15.4 h -19.4 v -15.4 z m -19.4,18.4 h 19.4 v 16.9 h -19.4 z m 22.4,0 h 16.4 v 16.9 h -16.4 z m 25.8,-3 v -15.4 h 19 v 15.4 z m 22,-15.4 h 18.2 v 15.4 h -18.2 z m 0,-9.4 v -22.1 h 18.2 v 22.1 z m 18.2,-25.2 h -18.2 v -20 h 18.2 z m -18.2,-29.4 V 1353 h 17.8 c 0.2,1.6 0.3,3 0.4,3.7 v 14.4 h -18.2 z M 3275.7,1195.6 H 3253 v -21.2 h 9.7 c 12.2,0 13,10.9 13,13 z m -86,274.9 v -16.9 h 16.4 v 16.9 z m -134.2,0 v -16.9 h 19 v 16.9 z m -25.8,0 v -16.9 h 16.4 v 16.9 z m 99.9,-296.1 h 19.4 v 21.2 h -19.4 z m -5.3,21.2 h -18.6 v -8.1 c 0,-12.2 10.9,-13 13,-13 h 5.6 z m 30,-21.2 h 19.4 v 21.2 h -19.4 z m 13,206.2 h 19.4 v 20 h -19.4 z m 22.4,0 h 16.4 v 20 h -16.4 z m 0,-9.4 V 1353 h 16.4 v 18.2 z m 0,-21.2 v -16.2 c 0.2,0 0.5,0 0.7,0 h 15.7 v 16.3 h -16.4 z m 8.7,-154.4 H 3179 v -21.2 h 6.4 c 12.2,0 13,10.9 13,13 z m -24.6,5.3 v 25.5 h -19.4 v -25.5 z m 5.3,0 h 19.4 v 25.5 h -19.4 z m 19.3,30.8 v 20 H 3179 v -20 z m -11.7,102.4 v 15.9 h -18.6 c 2.8,-11.9 12.7,-15.1 18.6,-15.9 z m -19.4,22.7 c 0,-1.4 0.3,-2.5 0.4,-3.7 h 18.9 v 18.2 h -19.4 v -14.5 z m 0,46.8 h 19.4 v 22.1 h -19.4 z m 22.4,0 h 16.4 v 22.1 h -16.4 z m 25.8,0 h 19 v 22.1 h -19 z m 0,-3 v -20 h 19 v 20 z m 0,-29.4 V 1353 h 19 v 18.2 z m 0,-21.2 v -16.3 h 17.2 c 0.7,0 1.2,0.2 1.9,0.2 v 16.1 z m 32.2,-175.6 v 21.2 h -21.9 v -8.1 c 0,-12.2 10.9,-13 13,-13 h 8.9 z m -191.3,77.2 v -20 h 22.7 v 20 z m -49.1,129 h 19.4 v 20 h -19.4 z m 22.4,0 h 16.4 v 20 h -16.4 z m 0,-9.4 V 1353 h 16.4 v 18.2 z m 0,-21.2 v -16.2 c 0.2,0 0.5,0 0.7,0 h 15.7 v 16.3 h -16.4 z m -0.5,-98.4 v -20 h 21.9 v 20 z m 49.9,-25.2 h -22.7 v -25.5 h 22.7 z m 0,-30.8 h -22.7 v -21.2 h 9.7 c 12.2,0 13,10.9 13,13 z m -28,0 h -21.9 v -8.1 c 0,-12.2 10.8,-13 13,-13 h 8.9 z m -21.9,5.3 h 21.9 v 25.5 h -21.9 z m -2.5,133.2 v 15.9 h -18.6 c 2.8,-11.9 12.7,-15.1 18.6,-15.9 z m -19.4,22.7 c 0,-1.4 0.3,-2.5 0.4,-3.7 h 19 v 18.2 h -19.4 z m 0,46.8 h 19.4 v 22.1 h -19.4 z m 22.4,0 h 16.4 v 22.1 h -16.4 z m 25.8,0 h 19 v 22.1 h -19 z m 0,-3 v -20 h 19 v 20 z m 0,-29.4 V 1353 h 19 v 18.2 z m 0,-21.2 v -16.3 h 17.2 c 0.7,0 1.2,0.2 1.9,0.2 v 16.1 z m 22,-15.7 c 11.3,1.8 15.6,9.6 17.2,15.7 h -17.2 z m -70.2,100.9 h 19.4 v 15.4 h -19.4 z m 22.4,0 h 16.4 v 15.4 h -16.4 z m 25.8,15.4 v -15.4 h 19 v 15.4 z m 22,-15.4 h 18.2 v 15.4 h -18.2 z m 0,-9.4 v -22.1 h 18.2 v 22.1 z m 18.2,-25.2 h -18.2 v -20 h 18.2 z m -18.2,-29.4 V 1353 h 17.8 c 0.2,1.6 0.3,3 0.4,3.7 v 14.4 h -18.2 z m 28.2,-170.3 h 18.6 v 25.5 h -18.6 z m 23.9,0 h 19.4 v 25.5 h -19.4 z m 19.5,30.8 v 20 h -19.4 v -20 z m 5.2,0 h 19.4 v 20 h -19.4 z m 13,203.5 h 19.4 v 15.4 h -19.4 z m 22.4,0 h 16.4 v 15.4 h -16.4 z m 25.8,18.4 h 19 v 16.9 h -19 z m 0,-3 v -15.4 h 19 v 15.4 z m 22,-15.4 h 18.2 v 15.4 h -18.2 z m 0,-9.4 v -22.1 h 18.2 v 22.1 z m 18.2,-25.2 h -18.2 v -20 h 18.2 z m -18.2,-29.4 V 1353 h 17.8 c 0.2,1.6 0.3,3 0.4,3.7 v 14.4 h -18.2 z m 0,-21.2 v -15.7 c 11.3,1.8 15.6,9.6 17.2,15.7 z m -11.7,-98.4 v -20 h 21.9 v 20 z m 0,-25.2 v -25.5 h 21.9 v 25.5 z m 27.2,-25.5 h 22.7 v 25.5 H 3253 Z m -245.7,252.7 h 19.4 v 16.9 h -19.4 z m 43.5,266.5 h -31.9 v -53.6 h 31.9 z m 0,-65.7 h -31.9 v -50 h 31.9 z m 0,-62 h -31.9 v -31.1 c 0,-14 12.4,-14.9 14.9,-14.9 h 17 z m 44.1,127.7 h -32 v -53.6 h 32 z m 0,-65.7 h -32 v -50 h 32 z m 0,-62 h -32 v -46 h 17.1 c 14,0 14.9,12.4 14.9,14.9 z m -17.4,-121.9 v -16.9 h 18.2 v 16.9 z m 28.2,-238.8 h 18.6 v 20 h -18.6 z m 56.6,488.4 h -31.9 v -53.6 h 31.9 z m 0,-65.7 h -31.9 v -50 h 31.9 z m 0,-62 h -31.9 v -31.1 c 0,-14 12.4,-14.9 14.9,-14.9 h 17 z m 5,-138.8 h 19.4 v 16.9 h -19.4 z m 39,266.5 h -32 v -53.6 h 32 z m 0,-65.7 h -32 v -50 h 32 z m 0,-62 h -32 v -46 h 17.1 c 14,0 14.9,12.4 14.9,14.9 z m 31.2,-121.9 v -16.9 h 18.2 v 16.9 z m 15.5,-218.9 v -20 h 22.7 v 20 z m 105.2,0 v -20 h 21.9 v 20 z m 22.2,202 h 19.4 v 16.9 h -19.4 z m 74.7,266.5 h -31.9 v -53.6 h 31.9 z m 0,-65.7 h -31.9 v -50 h 31.9 z m 0,-62 h -31.9 v -31.1 c 0,-14 12.4,-14.9 14.9,-14.9 h 17.1 v 46 z m 44,127.7 h -31.9 v -53.6 h 31.9 z m 0,-65.7 h -31.9 v -50 h 31.9 z m 0,-62 h -31.9 v -46 h 17.1 c 14,0 14.8,12.4 14.9,14.9 v 31.1 z m 9,-340.8 v -20 h 19.4 v 20 z m 58.5,468.5 h -31.9 v -53.6 h 31.9 z m 0,-65.7 h -31.9 v -50 h 31.9 z m 0,-62 h -31.9 v -31.1 c 0,-14 12.4,-14.9 14.9,-14.9 h 17 z m 44,127.7 h -31.9 v -53.6 h 31.9 z m 0,-65.7 h -31.9 v -50 h 31.9 z m 0,-62 h -31.9 v -46 h 17.1 c 14,0 14.8,12.4 14.9,14.9 v 31.1 z m 0,-121.9 v -16.9 h 18.2 v 16.9 z"
   id="path368" />
</g>
<g
   id="text"
   transform="translate(-391.9,-902.0226)">
	<path
   class="st2"
   d="m 3526.6,2202.5 h 32.8 V 2108 c 0,-41.5 21.7,-107.5 65.1,-107.5 33.8,0 33.8,35.2 33.8,74.7 v 127.3 h 32.8 v -164 c 0,-38.1 -19.8,-70.9 -58.8,-70.9 -51.1,0 -65.6,39.5 -71.9,58.4 h -1 v -53.1 h -32.8 z m -123,0 h 32.8 v -332.8 h -32.8 z m -223.3,-114.8 c 0,-57.4 18.8,-92.6 55.9,-92.6 37.6,0 56.9,35.2 56.9,92.6 0,57.9 -19.3,92.6 -56.9,92.6 -37.1,0 -55.9,-34.7 -55.9,-92.6 m 56,120.1 c 68,0 94.5,-52.6 94.5,-119.6 0,-67 -26.5,-120.6 -94.5,-120.6 -67.5,0 -93.6,53.5 -93.6,120.6 0,67 26,119.6 93.6,119.6 m 21.2,-280.2 h 43.4 v -42.4 h -43.4 z m -84.9,0 h 43.4 v -42.4 h -43.4 z M 2944,2202.5 h 32.8 V 2080 h 1 l 89.2,122.5 h 40.5 l -92.6,-127.8 82.5,-101.8 h -40 l -79.6,96.9 h -1 V 1869.7 H 2944 Z"
   id="path371" />
	<path
   class="st3"
   d="m 2800.8,2061.2 c -18.3,-9.6 -41.5,-17.4 -41.5,-36.2 0,-16.4 18.3,-29.9 46.3,-29.9 23.1,0 45.8,7.7 53.5,10.6 v -30.4 c -10.6,-2.4 -29.4,-7.7 -54,-7.7 -51.1,0 -78.6,23.6 -78.6,60.8 0,37.6 30.9,50.1 52.1,62.2 l 20.7,11.1 c 13.5,7.7 41.5,17.8 41.5,41.5 0,26.5 -24.1,37.1 -55.9,37.1 -26,0 -53.5,-10.1 -59.3,-12.1 v 29.9 c 9.2,2.9 32.8,9.6 62.7,9.6 53.6,0 85.4,-23.6 85.4,-69.4 0,-39.5 -29.4,-53 -53.5,-65.6 z m -176,141.3 h 32.8 v -229.6 h -32.8 v 94.5 c 0,41.5 -21.2,107.5 -64.6,107.5 -33.8,0 -33.8,-35.2 -33.8,-74.7 v -127.3 h -32.8 v 164 c 0,38.1 19.3,70.9 58.8,70.9 51.1,0 65.6,-39.5 71.4,-58.4 h 1 z m -248.4,-104.2 c 0,27.5 -2.9,32.8 -8.7,46.3 -9.6,22.2 -32.8,35.7 -53.5,35.7 -16.9,0 -32.3,-11.6 -32.3,-33.3 0,-39.1 51.1,-48.7 75.2,-48.7 z m 1,104.2 h 31.8 v -161.1 c 0,-28.9 -5.8,-73.8 -77.2,-73.8 -62.7,0 -82,35.2 -82.5,64.1 h 36.7 c 2.4,-17.8 9.6,-36.6 46.8,-36.6 17.4,0 36.7,6.3 41.9,31.8 1.5,7.7 1.5,32.8 1.5,43.9 -7.7,1.5 -14.5,1.5 -22.7,1.5 -40,0 -109.5,17.8 -109.5,71.4 0,41 24.1,64.1 61.7,64.1 42,0 64.6,-24.6 70.4,-35.7 h 1 v 30.4 z m -365.6,0 h 32.8 V 2108 c 0,-41.5 21.7,-107.5 65.1,-107.5 33.8,0 33.8,35.2 33.8,74.7 v 127.3 h 32.8 v -164 c 0,-38.1 -19.8,-70.9 -58.8,-70.9 -51.1,0 -65.6,39.5 -71.9,58.4 h -1 v -156.2 h -32.8 z m -161.6,0 h 32.8 v -95 c 0,-61.7 25.6,-104.6 77.6,-104.6 v -35.2 c -52.6,0 -69.9,34.2 -76.7,49.7 h -1 V 1973 h -32.8 v 229.5 z m -121.5,0 h 32.8 v -229.6 h -32.8 v 94.5 c 0,41.5 -21.2,107.5 -64.6,107.5 -33.8,0 -33.8,-35.2 -33.8,-74.7 v -127.3 h -32.8 v 164 c 0,38.1 19.3,70.9 58.8,70.9 51.1,0 65.6,-39.5 71.4,-58.4 h 1 z m -191,-26.6 c -7.2,2.4 -11.6,4.3 -22.2,4.3 -33.8,0 -37.6,-23.6 -37.6,-38.6 v -141.3 h 61.7 v -27.5 h -61.7 v -74.3 l -32.8,20.7 v 53.5 h -37.6 v 27.5 h 37.6 v 148.1 c 0,41 17.4,59.3 63.7,59.3 9.6,0 19.3,-1 28.9,-2.4 z m -227.6,-77.6 c 0,27.5 -2.9,32.8 -8.7,46.3 -9.6,22.2 -32.8,35.7 -53.5,35.7 -16.9,0 -32.3,-11.6 -32.3,-33.3 0,-39.1 51.1,-48.7 75.2,-48.7 z m 1,104.2 h 31.8 v -161.1 c 0,-28.9 -5.8,-73.8 -77.2,-73.8 -62.7,0 -82,35.2 -82.5,64.1 h 36.7 c 2.4,-17.8 9.6,-36.6 46.8,-36.6 17.4,0 36.7,6.3 42,31.8 1.5,7.7 1.5,32.8 1.5,43.9 -7.7,1.5 -14.5,1.5 -22.7,1.5 -40,0 -109.5,17.8 -109.5,71.4 0,41 24.1,64.1 61.7,64.1 42,0 64.6,-24.6 70.4,-35.7 h 1 z m -276.3,0 h 32.8 v -95 c 0,-61.7 25.6,-104.6 77.6,-104.6 v -35.2 c -52.6,0 -69.9,34.2 -76.7,49.7 h -1 V 1973 h -32.8 v 229.5 z m -199.2,-164 c 2.9,-15.4 14,-43.4 48.2,-43.4 33.3,0 43.9,28 43.9,43.4 z M 960,2174 c -10.6,2.4 -19.8,6.3 -45.3,6.3 -66.1,0 -81.5,-66.1 -81.5,-100.8 V 2066 h 132.1 v -11.1 c 0,-50.2 -26,-87.3 -80.1,-87.3 -61.2,0 -89.7,43.9 -89.7,112.4 0,84.9 41,127.8 111.9,127.8 21.2,0 38.6,-2.4 52.6,-6.8 z m -210.7,1.9 c -7.2,2.4 -11.6,4.3 -22.2,4.3 -33.8,0 -37.6,-23.6 -37.6,-38.6 v -141.3 h 61.7 v -27.5 h -61.7 v -74.3 l -32.8,20.7 v 53.5 h -37.6 v 27.5 h 37.6 v 148.1 c 0,41 17.4,59.3 63.7,59.3 9.6,0 19.3,-1 28.9,-2.4 z M 512.5,1913.1 h 43.4 v -43.4 h -43.4 z m 5.3,289.4 h 32.8 v -229.6 h -32.8 z m -125.9,0 h 32.8 v -332.8 h -32.8 z"
   id="path373" />
</g>
</svg>
