<svg xmlns="http://www.w3.org/2000/svg" height="285.667" width="588.36" xml:space="preserve"><path style="fill:#4f4c4c;fill-opacity:1;fill-rule:nonzero;stroke:none" d="M19.91 69.281c16.606-9.93 40.254-17.82 65.98-17.82 23.243 0 44.403 10.789 44.403 32.77 0 15.75-12.039 26.16-37.762 39.417-29.883 16.172-58.086 37.743-58.086 74.25 0 56.454 49.375 90.903 110.368 90.903 34.015 0 53.937-7.5 65.957-14.11l-18.661-49.793c-9.129 4.973-29.043 12.84-52.273 12.422-27.805 0-42.336-14.109-42.336-29.429 0-16.219 17.02-26.161 40.664-39.422 34.031-17.867 55.606-40.688 55.606-73.88C193.77 32.34 142.313.423 80.078.423 41.074.422 13.281 10.359 0 20.34L19.91 69.28M313.23 231.93h-73.867l10.371 52.269h207.883l-9.961-52.269H372.98L330.234 4.54h-59.738l42.734 227.39M567.961 122.809 562.559 183c-1.243 15.332-2.891 37.73-4.153 54.738h-.816c-7.055-17.008-14.945-38.566-22.402-54.738l-27.817-60.191zM489.949 77.16 456.77 4.54h-63.489l136.094 279.659h76.758l32.773-279.66h-62.644l-5.813 72.621h-80.5M738.445 52.691c7.043-1.23 15.766-1.652 26.133-1.652 32.363 0 60.996 11.633 79.262 32.77 19.07 21.562 29.031 50.621 29.031 84.242 0 43.961-24.48 70.121-73.848 70.121-10.371 0-19.089-.434-25.312-1.692zm-16.597 227.387c23.64 4.121 50.195 6.231 77.175 6.231 43.567 0 78.418-9.981 102.071-30.321 22.402-18.668 36.511-46.457 36.926-87.519 0-53.957-22.817-100.828-57.668-128.63C847.98 14.11 806.902 2.9 746.316 2.9c-33.601 0-62.644 2.492-76.328 4.972l51.86 272.207M1030.93 231.93h-73.867l10.371 52.269h207.876l-9.96-52.269h-74.69L1047.93 4.54h-59.746l42.746 227.39M1389.37 4.54l17.01 115.358c4.57 30.293 10.8 68.864 18.67 109.133h-1.24c-15.35-36.09-32.78-74.679-48.14-105.383L1318.42 9.141h-46.48l-9.95 113.25c-2.49 30.711-4.57 69.281-6.22 106.64h-.83c-7.89-36.941-16.18-78.84-23.24-109.133L1203.91 4.539h-54.78l70.13 279.66h80.07l8.72-106.219c1.65-26.109 4.56-58.082 4.98-89.199h1.65c10.8 31.117 25.72 63.891 37.76 89.199l51.87 106.219h80.9l-37.76-279.66h-58.08M1651.55 122.809 1646.14 183c-1.24 15.332-2.89 37.73-4.14 54.738h-.82c-7.06-17.008-14.94-38.566-22.41-54.738l-27.8-60.191zm-78.01-45.649-33.19-72.62h-63.48l136.09 279.659h76.76l32.77-279.66h-62.65l-5.81 72.621h-80.49M1841.53 159.75h24.9c32.36 0 56.01 19.5 56.01 46.871 0 22.41-19.09 32.391-42.74 32.391-11.2 0-18.25-.84-23.24-2.114zm-36.1 119.059c18.68 4.601 46.88 7.5 74.68 7.5 26.56 0 53.94-4.168 73.44-16.219 18.26-10.781 31.13-28.602 31.13-54.75 0-41.481-27.8-67.219-63.48-78.852v-1.636c16.59-7.071 23.64-25.731 26.55-51.043 3.31-31.118 5.8-67.637 10.79-79.27h-61.41c-2.49 7.5-5.39 31.55-8.3 66.012-2.48 34.031-14.11 44.379-37.76 44.379h-18.26L1812.07 4.54h-59.33l52.69 274.269M2047.71 284.199h58.9l-23.65-124.871h1.25c8.3 12.051 17.01 21.981 24.9 31.973l77.59 92.898h74.65L2148.11 163.5l64.73-158.96h-64.73l-46.89 121.601-29.87-28.22-17.84-93.382h-58.92l53.12 279.66M2421.08 123.23h-99.61l-12.83-67.628h111.6l-9.57-51.063h-171.35l53.11 279.66h165.56l-9.96-51h-105.37l-11.62-59.758h99.55l-9.51-50.211M2547.6 231.93h-73.88l10.37 52.269h207.89l-9.96-52.269h-74.71L2564.59 4.54h-59.74l42.75 227.39M2784.03 284.199l-53.11-279.66h-59.7l53.1 279.66h59.71M2786.1 4.54l53.1 279.659h70.14l36.93-106.64c11.2-35.68 18.66-64.688 25.3-95.387h1.23c1.27 28.59 4.98 59.289 12.87 100.406l19.1 101.621h55.59l-52.68-279.66h-61.84l-39 111.609c-12.46 37.793-19.92 63.102-27.38 97.551l-1.25-.418c-3.32-27-9.96-66.801-18.26-110.812l-18.27-97.93h-55.58M3293.48 17.43c-21.56-7.07-55.17-15.79-90.45-15.79-38.57 0-70.1 9.981-93.36 30.7-22.4 19.93-35.25 50.629-35.25 86.34 0 52.269 21.56 97.5 57.25 127.781 31.54 26.117 74.68 40.648 123.22 40.648 36.52 0 63.47-7.031 74.28-12.418l-17.84-50.632c-12.87 5.812-34.45 11.621-59.33 11.621-27.82 0-52.7-7.871-71.35-22.399-24.1-19.082-40.27-52.312-40.27-90.472 0-46.868 27.79-70.54 71.77-70.54 13.71 0 23.68 2.102 30.3 5l11.21 58.879h-43.15l9.14 47.731h101.62l-27.79-146.45M3470.98 284.199h58.93l-23.66-124.871h1.25c8.31 12.051 17.02 21.981 24.89 31.973l77.61 92.898h74.69L3571.39 163.5l64.75-158.96h-64.75l-46.87 121.601-29.87-28.22L3476.8 4.54h-58.92l53.1 279.66" transform="matrix(.13333 0 0 -.13333 0 285.667)"/><path style="fill:#4f4c4c;fill-opacity:1;fill-rule:nonzero;stroke:none" d="M3834.42 326.102c0 17.859 13.71 30.289 30.29 30.289 15.78 0 26.56-11.582 26.56-26.539 0-17.852-14.12-29.852-29.86-29.852-14.53 0-26.99 10.359-26.99 26.102zm-85.88 0c0 17.859 13.69 30.289 30.27 30.289 15.78 0 26.59-11.582 26.59-26.539 0-17.852-14.11-29.852-29.91-29.852-14.51 0-26.95 10.359-26.95 26.102zm5.8-108.282c-22.4-21.98-34.84-65.531-34.84-99.14 0-39.41 17.83-68.91 58.49-68.91 17.43 0 34.01 7.89 46.9 20.359 21.99 21.98 34.02 68.051 34.02 100.402 0 34.867-12.46 68.481-56.42 68.481-18.68 0-35.3-7.922-48.15-21.192zm168.05-45.648c0-51-17.85-100.403-49.77-131.91C3846.45 14.949 3811.18 0 3769.28 0 3696.67 0 3656 51.46 3656 116.57c0 50.629 18.69 100.828 51.47 132.379 26.11 24.891 61.81 39.852 102.05 39.852 73.88 0 112.87-49.789 112.87-116.629M3989.58 284.199h59.7l-43.12-227.347h107.44l-9.94-52.313h-167.21l53.13 279.66M4138.48 4.54l53.13 279.659h70.09l36.94-106.64c11.17-35.68 18.67-64.688 25.29-95.387h1.27c1.23 28.59 4.96 59.289 12.83 100.406l19.1 101.621h55.61l-52.7-279.66h-61.83l-38.99 111.609c-12.46 37.793-19.92 63.102-27.4 97.551l-1.23-.418c-3.32-27-9.98-66.801-18.28-110.812l-18.22-97.93h-55.61" transform="matrix(.13333 0 0 -.13333 0 285.667)"/><path style="fill:#cc800c;fill-opacity:1;fill-rule:nonzero;stroke:none" d="M2008.65 822.191h293.89V561h-293.89v261.191" transform="matrix(.13333 0 0 -.13333 0 285.667)"/><path style="fill:#0a7a96;fill-opacity:1;fill-rule:nonzero;stroke:none" d="M1980.48 397.672c-12.31-.82-22-.391-29.61 1.316 3.33 2.383 8.21 5.16 14.32 7.551 24.09 9.41 60.07 16.832 105.61 26.25 71.46 14.75 169.28 34.949 273.52 75.621 309.32 120.621 489.98 252.578 483.3 352.988-3.45 52.383-53.81 90.774-149.67 114.161-54.94 13.339-117.71 17.55-191.99 12.75-78.01-5.039-159.08-19.43-235.13-34.321-491.83-93.578-816.2-155.34-1078.25-172.277-189.26-12.242-365.607-8.16-491.533 46.848-87.707 38.293-134.738 131.722-128.684 197.791 5.821 63.84 46.817 152.42 146.739 221.81 93.3 63.38 149.699 101.66 287.941 155.62 88.147 34.36 218.457 73.42 319.837 79.97 33.94 2.19 62.37.57 84.47-4.82 12.44-3.03 20.38-8.3 20.68-13.73.55-9.88-18.46-31.82-73.01-51.82-13.94-5.39-39.99-13.89-70.18-23.73-40.94-13.34-87.36-28.42-120.45-41.33-209.66-81.78-431.605-225.49-423.495-347.72 3.933-58.791 58.015-101.248 160.769-126.291 107.09-26.137 215.716-33.84 352.276-25.028 216.07 13.938 515.87 70.379 983.94 161.739 120 23.83 238.61 39.99 343.11 46.73 129.27 8.35 235.89 2.58 316.83-17.17 78.58-19.11 173.28-56.318 177.81-124.709 7.45-111.68-214.06-275.121-551.21-406.621-175.6-68.488-260.33-75.328-322.23-80.34-10.98-.871-21.24-1.738-31.14-2.801-31.52-3.398-62.89-9.507-93.21-15.531-30.12-5.859-58.55-11.469-81.36-12.906" transform="matrix(.13333 0 0 -.13333 0 285.667)"/><path style="fill:#9b282d;fill-opacity:1;fill-rule:evenodd;stroke:none" d="M2785.63 2050.16c-8.24 9.14-19.79 14.16-32.38 14.16-1.04 0-2.03-.02-3.05-.09-25.27-1.57-43.55-17.04-59.69-30.66-2.52-2.18-5.06-4.31-7.54-6.36-39.33-31.96-73.8-69.14-107.14-105.08l-13.42-14.45c-68.62-73.59-136.33-158.73-213.03-268-63.32-90.21-126.27-182.79-187.16-272.32l-40.38-59.46c-24.64-36.33-50.09-73.9-75.69-110.46-20.11-28.76-44.2-63.19-75.3-90.02 1.29 9.38 2.95 18.85 4.64 28.52 1.55 8.85 3.11 17.67 4.36 26.5 0 0 9.82 68.37 12.56 87.12 7.83 53.89 16.51 111.78 26.84 170.11 17.74 100.41 42.4 206.01 77.63 332.3 15.93 57.14 32.62 113.79 49.61 168.4 8.58 27.68 17.39 55.28 26.27 82.87 1.66 5.14 3.47 10.3 5.26 15.49 7.68 22.2 15.62 45.15 15.32 69.77-.3 25.39-16.94 52.04-48.12 53.86-1.33.08-2.67.12-4 .12-28.83 0-52.26-17.88-71.11-32.23-42.44-32.36-84.33-69.76-128.09-114.37-89.28-91-171.23-187.59-232.66-261.56-74.35-89.55-144.31-183.28-207.9-278.56-67.5-101.15-129.44-202.15-184.07-300.12-50.39-90.36-100.31-190.23-157.13-314.402-28.82-62.949-51.39-114.187-71.06-161.148-2.51-6.008-4.94-12.051-7.43-18.102-3.19-8.019-6.42-16.027-9.85-23.949-1.29-2.949-2.69-5.957-4.07-8.91-4.25-9-8.62-18.328-10.78-28.879-3.73-18.09 2.51-32.762 16.22-38.25 3.35-1.309 6.82-2.012 10.31-2.012 11.2 0 21.59 7.133 28.48 19.551 7.71 13.832 13.8 28.313 19.73 42.371 5.15 12.141 11.3 23.211 15.85 34.828l14.26 27.371c8.77 16.743 17.51 33.52 26.19 50.301 6.51 12.61 12.92 25.27 19.31 37.918 19.15 37.844 39 76.981 61.38 113.723 8.51 13.918 15.97 28.41 23.2 42.429 5.32 10.309 10.81 20.942 16.6 31.122a3961.753 3961.753 0 0 0 43.55 74.718 4140.85 4140.85 0 0 0 94.29 150.27c68.03 103.34 134.41 197.07 202.98 286.48 73.51 95.83 155.42 188.04 225.87 265.59l34.44 37.93c53.45 58.83 108.37 119.2 162.56 179.69-7.62-21.49-15.19-43.01-22.71-64.55-72.89-209.24-146.16-433.19-171.33-668.2-3.45-31.74-5.15-61.08-5.35-89.82l-.07-7.69c-.28-23.82-.6-50.86 11.44-74.82 11.41-22.67 35.04-37.34 60.19-37.34 3.61 0 7.22.34 10.8.94 27.52 4.64 48.33 21.33 69.01 39.45 40.68 35.77 73.38 78.61 105.02 120l4.67 6.09c21.44 28.03 42.69 56.84 63.28 84.65 14.52 19.71 29.07 39.37 43.78 58.97 25.51 33.96 50.9 68.02 76.29 102.07 45.64 61.22 92.77 124.54 140 186.21 54.67 71.49 114.08 140.76 172.68 206.54-41.78-102.05-74.75-197.51-100.49-290.82-29.77-107.95-54.98-223.5-75.04-343.43-16.1-96.52-35-223.768-37.95-352.21-.06-2.808.29-14.441.43-15.281 3.14-28.457 28.53-50.719 59.78-50.719 32.35 0 58.79 22.782 60.34 52.731.03.418 0 1.828.03 2.301 1.55 61.128 6.53 122.859 12.15 185.348 11.49 126.77 26.51 241.37 45.86 350.36 20.71 116.17 47.78 230.48 80.51 339.73 19.51 65.19 37.23 117.22 55.84 163.75 12.13 30.33 22.91 55.07 33.98 77.84 2.76 5.67 5.71 11.26 8.72 16.89 9.57 17.93 19.49 36.48 22.83 57.82 2.2 14.18-2.01 28.81-11.35 39.07" transform="matrix(.13333 0 0 -.13333 0 285.667)"/></svg>