<?xml version="1.0" encoding="utf-8"?>
<!-- Generator: Adobe Illustrator 24.2.3, SVG Export Plug-In . SVG Version: 6.00 Build 0)  -->
<svg version="1.1" id="Layer_1" xmlns="http://www.w3.org/2000/svg" xmlns:xlink="http://www.w3.org/1999/xlink" x="0px" y="0px"
	 viewBox="0 0 76 42" style="enable-background:new 0 0 76 42;" xml:space="preserve">
<style type="text/css">
	.st0{fill:#1A1A18;}
</style>
<g>
	<path class="st0" d="M1,27.4l5.2-13.5h1.9l5.5,13.5h-2L10,23.3H4.4l-1.5,4.1H1z M4.9,21.8h4.6L8,18.1c-0.4-1.1-0.7-2.1-1-2.8
		c-0.2,0.9-0.4,1.7-0.7,2.6L4.9,21.8z"/>
	<path class="st0" d="M14.6,27.4v-9.4h4.2c0.8,0,1.5,0.1,1.9,0.3c0.4,0.2,0.8,0.5,1,0.9c0.3,0.4,0.4,0.9,0.4,1.4
		c0,0.7-0.2,1.2-0.7,1.7c-0.4,0.5-1.1,0.8-2,0.9c0.3,0.2,0.6,0.3,0.8,0.5c0.4,0.3,0.7,0.8,1,1.3l1.6,2.6h-1.6l-1.3-2
		c-0.4-0.6-0.7-1-0.9-1.3c-0.2-0.3-0.4-0.5-0.6-0.6s-0.4-0.2-0.6-0.3c-0.1,0-0.4,0-0.7,0h-1.4v4.2H14.6z M15.9,22.1h2.7
		c0.6,0,1-0.1,1.3-0.2c0.3-0.1,0.6-0.3,0.7-0.6c0.2-0.3,0.3-0.5,0.3-0.8c0-0.4-0.2-0.8-0.5-1.1c-0.3-0.3-0.8-0.4-1.5-0.4h-3V22.1z"
		/>
	<path class="st0" d="M23.1,27.4l3.6-9.4h1.3l3.9,9.4h-1.4l-1.1-2.9h-3.9l-1,2.9H23.1z M25.8,23.5H29l-1-2.6c-0.3-0.8-0.5-1.4-0.7-2
		c-0.1,0.6-0.3,1.2-0.5,1.8L25.8,23.5z"/>
	<path class="st0" d="M32.9,27.4v-9.4h3.5c0.7,0,1.3,0.1,1.7,0.3c0.4,0.2,0.8,0.5,1,0.9c0.2,0.4,0.4,0.8,0.4,1.2
		c0,0.4-0.1,0.8-0.3,1.1c-0.2,0.4-0.5,0.6-1,0.9c0.6,0.2,1,0.5,1.3,0.9c0.3,0.4,0.5,0.9,0.5,1.4c0,0.4-0.1,0.9-0.3,1.2
		c-0.2,0.4-0.4,0.7-0.7,0.9s-0.6,0.4-1,0.5c-0.4,0.1-0.9,0.2-1.5,0.2H32.9z M34.1,21.9h2c0.6,0,1,0,1.2-0.1c0.3-0.1,0.6-0.3,0.7-0.5
		c0.2-0.2,0.2-0.5,0.2-0.8c0-0.3-0.1-0.6-0.2-0.8c-0.2-0.2-0.4-0.4-0.6-0.5C37.2,19.1,36.7,19,36,19h-1.9V21.9z M34.1,26.3h2.4
		c0.4,0,0.7,0,0.8,0c0.3-0.1,0.5-0.1,0.7-0.3s0.4-0.3,0.5-0.5c0.1-0.2,0.2-0.5,0.2-0.8c0-0.4-0.1-0.7-0.3-0.9
		c-0.2-0.3-0.4-0.4-0.8-0.5c-0.3-0.1-0.8-0.2-1.4-0.2h-2.2V26.3z"/>
	<path class="st0" d="M41.7,27.4v-9.4h6.8V19H43v2.9h5.2V23H43v3.2h5.8v1.1H41.7z"/>
	<path class="st0" d="M50.5,27.4v-9.4h1.2v8.3h4.7v1.1H50.5z"/>
	<path class="st0" d="M57.8,27.4v-9.4h1.2v8.3h4.7v1.1H57.8z"/>
	<path class="st0" d="M64.2,27.4l3.6-9.4h1.3l3.9,9.4h-1.4l-1.1-2.9h-3.9l-1,2.9H64.2z M66.9,23.5h3.2l-1-2.6
		c-0.3-0.8-0.5-1.4-0.7-2c-0.1,0.6-0.3,1.2-0.5,1.8L66.9,23.5z"/>
</g>
</svg>
