<svg xmlns="http://www.w3.org/2000/svg" height="3401.573" width="4535.427" xml:space="preserve"><path style="fill:#231f20;fill-opacity:1;fill-rule:nonzero;stroke:none" d="M3782.19 3073.7v-713h1217.47c-172.98-495-642.05-822.6-1240.25-822.6-742.4 0-1346.25 610.5-1346.25 1360.9 0 750.4 603.85 1361.1 1346.25 1361.1 443.38 0 791.89-153.4 1065.22-468.7l595.8 528.3c-420.77 485-995.17 741.4-1661.02 741.4-1179.28 0-2138.66-969.8-2138.66-2162.1 0-1192.1 959.38-2162.102 2138.66-2162.102 754.56 0 1392.49 350.302 1762.07 902.502 218 325.7 342.68 721.6 342.68 1242.1v192.2zm27610.11-738.5-579.6 1697.1-582.6-1697.1zm1397.4-1513.598h-880.8l-255.3 747.798h-1686.4l-256.7-747.798h-874.8l1499 4154.798h950zM9650.14 2335.2l-579.53 1697.1-582.62-1697.1zM11047.6 821.602l-880.6.199-255.35 747.599H8225.11l-256.72-747.798h-874.61L8592.79 4976.4h949.97zM13530.5 4976.4h-829.9V821.602h2434.9V1605.1h-1605zM17579.7 2537h1559.1v771.7h-1559.1v884.4h1756.4v783.3h-2553.3V821.602h2599.5V1605.1h-1802.6zm4664.3 445.1h723.6c215.8 0 323 32.1 414.4 88 176.1 107.5 293.9 302.8 293.9 526s-117.8 418.7-293.9 526.2c-91.4 55.8-198.6 87.8-414.4 87.8l-723.6.9zm1478-2160.498L22894.3 2263.9H22244V821.602h-810V4976.4h1546.3c405 0 655.7-68.7 855.9-188.9 393.9-236.3 657.8-670.6 657.8-1167.2 0-544.3-317.1-1013.6-774.7-1229.6l911.2-1569.098zM26353 4976.4h829.9V821.398H26353V4976.4M17199.1 22989.5c1226.1 0 2223.7-997.6 2223.7-2223.7h1425.5c0 2012.3-1636.9 3649.2-3649.2 3649.2-2012.2 0-3649.2-1636.9-3649.2-3649.2h1425.5c0 1226.1 997.5 2223.7 2223.7 2223.7m2223.7-6377.8c0 1226.1-997.6 2223.7-2223.7 2223.7-1226.2 0-2223.7-997.6-2223.7-2223.7 0-1226.2 997.5-2223.6 2223.7-2223.6 1226.1 0 2223.7 997.4 2223.7 2223.6m5579.6 0c0-1768.7-1264.8-3246.8-2937.3-3579.5-497-98.8-982-50.3-1216.8-19.2v-239.6c0-810.2-98.8-1281.8-277.8-1712.3-549.3-1321.2-1853.6-2252.7-3371.4-2252.7-2012.2 0-3649.2 1637-3649.2 3649.2h1425.5c0-1226.2 997.5-2223.6 2223.7-2223.6 924.9 0 1720.9 567.1 2054.4 1372.6 117 282.5 169.3 549.7 169.3 1253.9v908.8c-175.1-157.6-393.4-330.2-687-467-467.2-218-988-339.8-1536.7-339.8-2012.2 0-3649.2 1637-3649.2 3649.2 0 2012.3 1637 3649.2 3649.2 3649.2 1522.4 0 2830-937 3376.4-2264.6 175.8-427.2 272.8-894.7 272.8-1655.9v-1922.3c203.9-35.7 520.7-70.7 938.8 12.3 1019.1 202.7 1789.8 1103.6 1789.8 2181.3 0 1226.1-997.6 2223.7-2223.7 2223.7v1425.5c2012.2 0 3649.2-1636.9 3649.2-3649.2M13045 20260.9v-1425.5c-1226 0-2223.7-997.6-2223.7-2223.7 0-1226.2 997.7-2223.6 2223.7-2223.6v-1425.6c-2012.2 0-3649.18 1637-3649.18 3649.2 0 2012.3 1636.98 3649.2 3649.18 3649.2" transform="matrix(.13333 0 0 -.13333 0 3401.573)"/></svg>