<?xml version="1.0" encoding="utf-8"?>
<!-- Generator: Adobe Illustrator 24.2.3, SVG Export Plug-In . SVG Version: 6.00 Build 0)  -->
<svg version="1.1" id="Layer_1" xmlns="http://www.w3.org/2000/svg" xmlns:xlink="http://www.w3.org/1999/xlink" x="0px" y="0px"
	 viewBox="0 0 1920 2344" style="enable-background:new 0 0 1920 2344;" xml:space="preserve">
<style type="text/css">
	.st0{fill:none;stroke:#E95724;stroke-width:24.9039;stroke-linecap:round;stroke-linejoin:round;stroke-miterlimit:10;}
	.st1{fill:none;stroke:#FFFFFF;stroke-width:32.0193;stroke-linecap:round;stroke-linejoin:round;stroke-miterlimit:10;}
	.st2{fill:none;stroke:#B6B6B6;stroke-width:24.9039;stroke-linecap:round;stroke-linejoin:round;stroke-miterlimit:10;}
	.st3{fill:none;stroke:#2B2C82;stroke-width:24.9039;stroke-linecap:round;stroke-linejoin:round;stroke-miterlimit:10;}
	.st4{fill:none;stroke:#FFCE00;stroke-width:24.9039;stroke-linecap:round;stroke-linejoin:round;stroke-miterlimit:10;}
	.st5{fill:none;stroke:#1875B4;stroke-width:24.9039;stroke-linecap:round;stroke-linejoin:round;stroke-miterlimit:10;}
	.st6{fill:none;stroke:#FFFFFF;stroke-width:35.577;stroke-linecap:round;stroke-linejoin:round;stroke-miterlimit:10;}
	.st7{fill:none;stroke:#F18A17;stroke-width:24.9039;stroke-linecap:round;stroke-linejoin:round;stroke-miterlimit:10;}
	.st8{fill:none;stroke:#26AA5D;stroke-width:24.9039;stroke-linecap:round;stroke-linejoin:round;stroke-miterlimit:10;}
	.st9{fill:none;stroke:#DADADB;stroke-width:0.3558;stroke-miterlimit:10;}
	.st10{fill:#020203;}
	.st11{fill:none;stroke:#020203;stroke-width:3.5577;stroke-linecap:round;stroke-linejoin:round;stroke-miterlimit:10;}
</style>
<line class="st0" x1="958.1" y1="1365.4" x2="1627" y2="1365.4"/>
<g>
	<line class="st1" x1="957.2" y1="1365.4" x2="1626.1" y2="1365.4"/>
	<line class="st2" x1="957.2" y1="1365.4" x2="1626.1" y2="1365.4"/>
</g>
<g>
	<line class="st1" x1="957.2" y1="1401" x2="1918.7" y2="1401"/>
	<line class="st3" x1="957.2" y1="1401" x2="1918.7" y2="1401"/>
</g>
<g>
	<polyline class="st1" points="1918.7,1034.3 887,1034.3 887,1471.9 1759,2344 	"/>
	<polyline class="st4" points="1918.7,1034.3 887,1034.3 887,1471.9 1759,2344 	"/>
</g>
<g>
	<polyline class="st1" points="1918.7,1069.9 922.5,1069.9 922.5,1454.4 1812.1,2343.9 	"/>
	<polyline class="st4" points="1918.7,1069.9 922.5,1069.9 922.5,1454.4 1812.1,2343.9 	"/>
</g>
<g>
	<polyline class="st1" points="958.1,1105.5 958.1,1435.9 1866.1,2343.9 	"/>
	<polyline class="st4" points="958.1,1105.5 958.1,1435.9 1866.1,2343.9 	"/>
</g>
<g>
	<polyline class="st1" points="1918.7,998.8 851.4,998.8 851.4,1489.9 1700.1,2339.1 	"/>
	<polyline class="st4" points="1918.7,998.8 851.4,998.8 851.4,1489.9 1700.1,2339.1 	"/>
</g>
<g>
	<polyline class="st1" points="780.2,2341 780.2,1321.7 163.4,700.7 163.4,0.5 	"/>
	<polyline class="st0" points="780.2,2341 780.2,1321.7 163.4,700.7 163.4,0.5 	"/>
</g>
<g>
	<polyline class="st1" points="815.8,2341 815.8,1301 199,675.1 199,0.5 	"/>
	<polyline class="st0" points="815.8,2341 815.8,1301 199,675.1 199,0.5 	"/>
</g>
<g>
	<polyline class="st1" points="744.6,2341 744.6,1342.2 127.8,725.4 127.8,0.5 	"/>
	<polyline class="st0" points="744.6,2341 744.6,1342.2 127.8,725.4 127.8,0.5 	"/>
</g>
<g>
	<line class="st1" x1="560.6" y1="0.5" x2="560.6" y2="2341"/>
	<line class="st5" x1="560.6" y1="0.5" x2="560.6" y2="2341"/>
</g>
<g>
	<polyline class="st1" points="596.2,2341 596.2,1260.1 1918.7,1260.1 	"/>
	<polyline class="st5" points="596.2,2341 596.2,1260.1 1918.7,1260.1 	"/>
</g>
<g>
	<line class="st1" x1="525.1" y1="0.5" x2="525.1" y2="2341"/>
	<line class="st5" x1="525.1" y1="0.5" x2="525.1" y2="2341"/>
</g>
<g>
	<polyline class="st6" points="1087.7,2341 1087.7,1188.9 631.8,1188.9 631.8,0.5 	"/>
	<polyline class="st7" points="1087.7,2341 1087.7,1188.9 631.8,1188.9 631.8,0.5 	"/>
</g>
<g>
	<polyline class="st6" points="1052.1,2341 1052.1,1224.5 596.2,1224.5 596.2,0.5 	"/>
	<polyline class="st7" points="1052.1,2341 1052.1,1224.5 596.2,1224.5 596.2,0.5 	"/>
</g>
<g>
	<polyline class="st1" points="1123.3,2341 1123.3,920.1 1918.7,920.1 	"/>
	<polyline class="st7" points="1123.3,2341 1123.3,920.1 1918.7,920.1 	"/>
</g>
<g>
	<polyline class="st1" points="1158.9,2341 1158.9,1224.5 1918.7,1224.5 	"/>
	<polyline class="st7" points="1158.9,2341 1158.9,1224.5 1918.7,1224.5 	"/>
</g>
<g>
	<line class="st1" x1="1627" y1="0.5" x2="1627" y2="2341"/>
	<line class="st8" x1="1627" y1="0.5" x2="1627" y2="2341"/>
</g>
<g>
	<line class="st1" x1="1662.6" y1="0.5" x2="1662.6" y2="2341"/>
	<line class="st8" x1="1662.6" y1="0.5" x2="1662.6" y2="2341"/>
</g>
<g>
	<line class="st1" x1="1698.1" y1="0.5" x2="1698.1" y2="2341"/>
	<line class="st8" x1="1698.1" y1="0.5" x2="1698.1" y2="2341"/>
</g>
<line class="st9" x1="1918.7" y1="959.5" x2="-2.5" y2="959.5"/>
<line class="st9" x1="1491.1" y1="0.5" x2="1491.1" y2="2341"/>
<path class="st10" d="M572.7,584.5c0,6.7-5.4,12.1-12.1,12.1c-6.7,0-12.1-5.4-12.1-12.1c0-6.7,5.4-12.1,12.1-12.1
	C567.3,572.4,572.7,577.8,572.7,584.5z"/>
<path class="st10" d="M608.3,584.5c0,6.7-5.4,12.1-12.1,12.1s-12.1-5.4-12.1-12.1c0-6.7,5.4-12.1,12.1-12.1S608.3,577.8,608.3,584.5
	z"/>
<path class="st10" d="M1674.7,584.5c0,6.7-5.4,12.1-12.1,12.1s-12.1-5.4-12.1-12.1c0-6.7,5.4-12.1,12.1-12.1
	S1674.7,577.8,1674.7,584.5z"/>
<path class="st10" d="M1710.2,584.5c0,6.7-5.4,12.1-12.1,12.1c-6.7,0-12.1-5.4-12.1-12.1c0-6.7,5.4-12.1,12.1-12.1
	C1704.8,572.4,1710.2,577.8,1710.2,584.5z"/>
<path class="st10" d="M1639.1,584.5c0,6.7-5.4,12.1-12.1,12.1c-6.7,0-12.1-5.4-12.1-12.1c0-6.7,5.4-12.1,12.1-12.1
	C1633.7,572.4,1639.1,577.8,1639.1,584.5z"/>
<path class="st10" d="M572.7,762.4c0,6.7-5.4,12.1-12.1,12.1c-6.7,0-12.1-5.4-12.1-12.1c0-6.7,5.4-12.1,12.1-12.1
	C567.3,750.3,572.7,755.7,572.7,762.4z"/>
<path class="st10" d="M608.3,762.4c0,6.7-5.4,12.1-12.1,12.1s-12.1-5.4-12.1-12.1c0-6.7,5.4-12.1,12.1-12.1S608.3,755.7,608.3,762.4
	z"/>
<path class="st10" d="M572.7,940.3c0,6.7-5.4,12.1-12.1,12.1c-6.7,0-12.1-5.4-12.1-12.1c0-6.7,5.4-12.1,12.1-12.1
	C567.3,928.2,572.7,933.6,572.7,940.3z"/>
<path class="st10" d="M236.5,701.5c0,6.7-5.4,12.1-12.1,12.1c-6.7,0-12.1-5.4-12.1-12.1c0-6.7,5.4-12.1,12.1-12.1
	C231,689.4,236.5,694.8,236.5,701.5z"/>
<path class="st10" d="M608.3,940.3c0,6.7-5.4,12.1-12.1,12.1s-12.1-5.4-12.1-12.1c0-6.7,5.4-12.1,12.1-12.1S608.3,933.6,608.3,940.3
	z"/>
<path class="st10" d="M1710.2,762.4c0,6.7-5.4,12.1-12.1,12.1c-6.7,0-12.1-5.4-12.1-12.1c0-6.7,5.4-12.1,12.1-12.1
	C1704.8,750.3,1710.2,755.7,1710.2,762.4z"/>
<path class="st10" d="M1710.2,904.7c0,6.7-5.4,12.1-12.1,12.1c-6.7,0-12.1-5.4-12.1-12.1c0-6.7,5.4-12.1,12.1-12.1
	C1704.8,892.6,1710.2,898,1710.2,904.7z"/>
<path class="st10" d="M1710.2,1069.9c0,6.7-5.4,12.1-12.1,12.1c-6.7,0-12.1-5.4-12.1-12.1c0-6.7,5.4-12.1,12.1-12.1
	C1704.8,1057.8,1710.2,1063.2,1710.2,1069.9z"/>
<path class="st10" d="M1674.7,1069.9c0,6.7-5.4,12.1-12.1,12.1s-12.1-5.4-12.1-12.1c0-6.7,5.4-12.1,12.1-12.1
	S1674.7,1063.2,1674.7,1069.9z"/>
<path class="st10" d="M1639.1,1069.9c0,6.7-5.4,12.1-12.1,12.1c-6.7,0-12.1-5.4-12.1-12.1c0-6.7,5.4-12.1,12.1-12.1
	C1633.7,1057.8,1639.1,1063.2,1639.1,1069.9z"/>
<path class="st10" d="M970.2,1105.5c0,6.7-5.4,12.1-12.1,12.1c-6.7,0-12.1-5.4-12.1-12.1c0-6.7,5.4-12.1,12.1-12.1
	C964.8,1093.4,970.2,1098.8,970.2,1105.5z"/>
<path class="st10" d="M1064.2,1494.2c0,6.7-5.4,12.1-12.1,12.1c-6.7,0-12.1-5.4-12.1-12.1c0-6.7,5.4-12.1,12.1-12.1
	C1058.8,1482.1,1064.2,1487.5,1064.2,1494.2z"/>
<path class="st10" d="M1603.5,1069.9c0,6.7-5.4,12.1-12.1,12.1c-6.7,0-12.1-5.4-12.1-12.1c0-6.7,5.4-12.1,12.1-12.1
	C1598.1,1057.8,1603.5,1063.2,1603.5,1069.9z"/>
<path class="st10" d="M1603.5,1034.3c0,6.7-5.4,12.1-12.1,12.1c-6.7,0-12.1-5.4-12.1-12.1c0-6.7,5.4-12.1,12.1-12.1
	C1598.1,1022.2,1603.5,1027.7,1603.5,1034.3z"/>
<path class="st10" d="M1603.5,1259.3c0,6.7-5.4,12.1-12.1,12.1c-6.7,0-12.1-5.4-12.1-12.1c0-6.7,5.4-12.1,12.1-12.1
	C1598.1,1247.2,1603.5,1252.6,1603.5,1259.3z"/>
<path class="st10" d="M1603.5,1223.7c0,6.7-5.4,12.1-12.1,12.1c-6.7,0-12.1-5.4-12.1-12.1c0-6.7,5.4-12.1,12.1-12.1
	C1598.1,1211.6,1603.5,1217,1603.5,1223.7z"/>
<path class="st10" d="M1603.5,1401c0,6.7-5.4,12.1-12.1,12.1c-6.7,0-12.1-5.4-12.1-12.1c0-6.7,5.4-12.1,12.1-12.1
	C1598.1,1388.9,1603.5,1394.3,1603.5,1401z"/>
<path class="st10" d="M1603.5,1365.4c0,6.7-5.4,12.1-12.1,12.1c-6.7,0-12.1-5.4-12.1-12.1c0-6.7,5.4-12.1,12.1-12.1
	C1598.1,1353.3,1603.5,1358.7,1603.5,1365.4z"/>
<path class="st10" d="M1603.5,998.8c0,6.7-5.4,12.1-12.1,12.1c-6.7,0-12.1-5.4-12.1-12.1c0-6.7,5.4-12.1,12.1-12.1
	C1598.1,986.7,1603.5,992.1,1603.5,998.8z"/>
<path class="st10" d="M1363.4,1069.9c0,6.7-5.4,12.1-12.1,12.1c-6.7,0-12.1-5.4-12.1-12.1c0-6.7,5.4-12.1,12.1-12.1
	C1358,1057.8,1363.4,1063.2,1363.4,1069.9z"/>
<path class="st10" d="M1363.4,1034.3c0,6.7-5.4,12.1-12.1,12.1c-6.7,0-12.1-5.4-12.1-12.1c0-6.7,5.4-12.1,12.1-12.1
	C1358,1022.2,1363.4,1027.7,1363.4,1034.3z"/>
<path class="st10" d="M1363.4,1260.1c0,6.7-5.4,12.1-12.1,12.1c-6.7,0-12.1-5.4-12.1-12.1c0-6.7,5.4-12.1,12.1-12.1
	C1358,1248,1363.4,1253.4,1363.4,1260.1z"/>
<path class="st10" d="M1363.4,1401c0,6.7-5.4,12.1-12.1,12.1c-6.7,0-12.1-5.4-12.1-12.1c0-6.7,5.4-12.1,12.1-12.1
	C1358,1388.9,1363.4,1394.3,1363.4,1401z"/>
<path class="st10" d="M1363.4,1224.5c0,6.7-5.4,12.1-12.1,12.1c-6.7,0-12.1-5.4-12.1-12.1c0-6.7,5.4-12.1,12.1-12.1
	C1358,1212.5,1363.4,1217.9,1363.4,1224.5z"/>
<circle class="st10" cx="1351.3" cy="998.8" r="12.1"/>
<path class="st10" d="M934.6,1105.5c0,6.7-5.4,12.1-12.1,12.1s-12.1-5.4-12.1-12.1c0-6.7,5.4-12.1,12.1-12.1
	S934.6,1098.8,934.6,1105.5z"/>
<path class="st10" d="M899,1105.5c0,6.7-5.4,12.1-12.1,12.1c-6.7,0-12.1-5.4-12.1-12.1c0-6.7,5.4-12.1,12.1-12.1
	C893.6,1093.4,899,1098.8,899,1105.5z"/>
<path class="st10" d="M863.5,1105.5c0,6.7-5.4,12.1-12.1,12.1c-6.7,0-12.1-5.4-12.1-12.1c0-6.7,5.4-12.1,12.1-12.1
	C858.1,1093.4,863.5,1098.8,863.5,1105.5z"/>
<path class="st10" d="M211.6,737.1c0,6.7-5.4,12.1-12.1,12.1c-6.7,0-12.1-5.4-12.1-12.1c0-6.7,5.4-12.1,12.1-12.1
	C206.1,725,211.6,730.4,211.6,737.1z"/>
<path class="st10" d="M186.7,772.7c0,6.7-5.4,12.1-12.1,12.1c-6.7,0-12.1-5.4-12.1-12.1c0-6.7,5.4-12.1,12.1-12.1
	C181.2,760.6,186.7,766,186.7,772.7z"/>
<path class="st10" d="M331,916.8c0,6.7-5.4,12.1-12.1,12.1c-6.7,0-12.1-5.4-12.1-12.1c0-6.7,5.4-12.1,12.1-12.1
	C325.6,904.7,331,910.1,331,916.8z"/>
<path class="st10" d="M492.2,1077.7c0,6.7-5.4,12.1-12.1,12.1c-6.7,0-12.1-5.4-12.1-12.1c0-6.7,5.4-12.1,12.1-12.1
	C486.8,1065.6,492.2,1071,492.2,1077.7z"/>
<path class="st10" d="M537.1,1077.7c0,6.7-5.4,12.1-12.1,12.1c-6.7,0-12.1-5.4-12.1-12.1c0-6.7,5.4-12.1,12.1-12.1
	C531.7,1065.6,537.1,1071,537.1,1077.7z"/>
<path class="st10" d="M572.7,1077.7c0,6.7-5.4,12.1-12.1,12.1c-6.7,0-12.1-5.4-12.1-12.1c0-6.7,5.4-12.1,12.1-12.1
	C567.3,1065.6,572.7,1071,572.7,1077.7z"/>
<path class="st10" d="M608.3,1077.7c0,6.7-5.4,12.1-12.1,12.1s-12.1-5.4-12.1-12.1c0-6.7,5.4-12.1,12.1-12.1
	S608.3,1071,608.3,1077.7z"/>
<path class="st10" d="M643.9,1077.7c0,6.7-5.4,12.1-12.1,12.1c-6.7,0-12.1-5.4-12.1-12.1c0-6.7,5.4-12.1,12.1-12.1
	C638.5,1065.6,643.9,1071,643.9,1077.7z"/>
<path class="st10" d="M1028.6,1494.2c0,6.7-5.4,12.1-12.1,12.1c-6.7,0-12.1-5.4-12.1-12.1c0-6.7,5.4-12.1,12.1-12.1
	C1023.2,1482.1,1028.6,1487.5,1028.6,1494.2z"/>
<path class="st10" d="M1099.8,1494.2c0,6.7-5.4,12.1-12.1,12.1c-6.7,0-12.1-5.4-12.1-12.1c0-6.7,5.4-12.1,12.1-12.1
	C1094.4,1482.1,1099.8,1487.5,1099.8,1494.2z"/>
<ellipse transform="matrix(0.405 -0.9143 0.9143 0.405 -697.8278 1916.0652)" class="st10" cx="1123.3" cy="1494.2" rx="12.1" ry="12.1"/>
<ellipse transform="matrix(0.3827 -0.9239 0.9239 0.3827 -665.0823 1993.0404)" class="st10" cx="1158.9" cy="1494.2" rx="12.1" ry="12.1"/>
<path class="st10" d="M1064.2,1654.3c0,6.7-5.4,12.1-12.1,12.1c-6.7,0-12.1-5.4-12.1-12.1c0-6.7,5.4-12.1,12.1-12.1
	C1058.8,1642.2,1064.2,1647.6,1064.2,1654.3z"/>
<path class="st10" d="M1099.8,1654.3c0,6.7-5.4,12.1-12.1,12.1c-6.7,0-12.1-5.4-12.1-12.1c0-6.7,5.4-12.1,12.1-12.1
	C1094.4,1642.2,1099.8,1647.6,1099.8,1654.3z"/>
<path class="st10" d="M1135.4,1654.3c0,6.7-5.4,12.1-12.1,12.1s-12.1-5.4-12.1-12.1c0-6.7,5.4-12.1,12.1-12.1
	S1135.4,1647.6,1135.4,1654.3z"/>
<path class="st10" d="M1170.9,1654.3c0,6.7-5.4,12.1-12.1,12.1c-6.7,0-12.1-5.4-12.1-12.1c0-6.7,5.4-12.1,12.1-12.1
	C1165.5,1642.2,1170.9,1647.6,1170.9,1654.3z"/>
<path class="st10" d="M537.1,1654.3c0,6.7-5.4,12.1-12.1,12.1c-6.7,0-12.1-5.4-12.1-12.1c0-6.7,5.4-12.1,12.1-12.1
	C531.7,1642.2,537.1,1647.6,537.1,1654.3z"/>
<path class="st10" d="M572.7,1654.3c0,6.7-5.4,12.1-12.1,12.1c-6.7,0-12.1-5.4-12.1-12.1c0-6.7,5.4-12.1,12.1-12.1
	C567.3,1642.2,572.7,1647.6,572.7,1654.3z"/>
<path class="st10" d="M608.3,1654.3c0,6.7-5.4,12.1-12.1,12.1s-12.1-5.4-12.1-12.1c0-6.7,5.4-12.1,12.1-12.1
	S608.3,1647.6,608.3,1654.3z"/>
<path class="st10" d="M1064.2,1401c0,6.7-5.4,12.1-12.1,12.1c-6.7,0-12.1-5.4-12.1-12.1c0-6.7,5.4-12.1,12.1-12.1
	C1058.8,1388.9,1064.2,1394.3,1064.2,1401z"/>
<path class="st10" d="M1099.8,1401c0,6.7-5.4,12.1-12.1,12.1c-6.7,0-12.1-5.4-12.1-12.1c0-6.7,5.4-12.1,12.1-12.1
	C1094.4,1388.9,1099.8,1394.3,1099.8,1401z"/>
<path class="st10" d="M1135.4,1401c0,6.7-5.4,12.1-12.1,12.1s-12.1-5.4-12.1-12.1c0-6.7,5.4-12.1,12.1-12.1
	S1135.4,1394.3,1135.4,1401z"/>
<path class="st10" d="M1170.9,1401c0,6.7-5.4,12.1-12.1,12.1c-6.7,0-12.1-5.4-12.1-12.1c0-6.7,5.4-12.1,12.1-12.1
	C1165.5,1388.9,1170.9,1394.3,1170.9,1401z"/>
<path class="st10" d="M863.1,1401c0,6.7-5.4,12.1-12.1,12.1c-6.7,0-12.1-5.4-12.1-12.1c0-6.7,5.4-12.1,12.1-12.1
	C857.7,1388.9,863.1,1394.3,863.1,1401z"/>
<path class="st10" d="M898.7,1401c0,6.7-5.4,12.1-12.1,12.1s-12.1-5.4-12.1-12.1c0-6.7,5.4-12.1,12.1-12.1S898.7,1394.3,898.7,1401z
	"/>
<path class="st10" d="M934.3,1401c0,6.7-5.4,12.1-12.1,12.1c-6.7,0-12.1-5.4-12.1-12.1c0-6.7,5.4-12.1,12.1-12.1
	C928.9,1388.9,934.3,1394.3,934.3,1401z"/>
<path class="st10" d="M756.7,1401c0,6.7-5.4,12.1-12.1,12.1c-6.7,0-12.1-5.4-12.1-12.1c0-6.7,5.4-12.1,12.1-12.1
	C751.3,1388.9,756.7,1394.3,756.7,1401z"/>
<path class="st10" d="M756.7,1654.3c0,6.7-5.4,12.1-12.1,12.1c-6.7,0-12.1-5.4-12.1-12.1c0-6.7,5.4-12.1,12.1-12.1
	C751.3,1642.2,756.7,1647.6,756.7,1654.3z"/>
<path class="st10" d="M792.3,1401c0,6.7-5.4,12.1-12.1,12.1c-6.7,0-12.1-5.4-12.1-12.1c0-6.7,5.4-12.1,12.1-12.1
	C786.9,1388.9,792.3,1394.3,792.3,1401z"/>
<path class="st10" d="M827.9,1401c0,6.7-5.4,12.1-12.1,12.1c-6.7,0-12.1-5.4-12.1-12.1c0-6.7,5.4-12.1,12.1-12.1
	C822.5,1388.9,827.9,1394.3,827.9,1401z"/>
<path class="st10" d="M537.1,1401c0,6.7-5.4,12.1-12.1,12.1c-6.7,0-12.1-5.4-12.1-12.1c0-6.7,5.4-12.1,12.1-12.1
	C531.7,1388.9,537.1,1394.3,537.1,1401z"/>
<path class="st10" d="M572.7,1401c0,6.7-5.4,12.1-12.1,12.1c-6.7,0-12.1-5.4-12.1-12.1c0-6.7,5.4-12.1,12.1-12.1
	C567.3,1388.9,572.7,1394.3,572.7,1401z"/>
<path class="st10" d="M608.3,1401c0,6.7-5.4,12.1-12.1,12.1s-12.1-5.4-12.1-12.1c0-6.7,5.4-12.1,12.1-12.1S608.3,1394.3,608.3,1401z
	"/>
<path class="st10" d="M969.9,1401c0,6.7-5.4,12.1-12.1,12.1c-6.7,0-12.1-5.4-12.1-12.1c0-6.7,5.4-12.1,12.1-12.1
	C964.5,1388.9,969.9,1394.3,969.9,1401z"/>
<path class="st10" d="M1639.1,1401c0,6.7-5.4,12.1-12.1,12.1c-6.7,0-12.1-5.4-12.1-12.1c0-6.7,5.4-12.1,12.1-12.1
	C1633.7,1388.9,1639.1,1394.3,1639.1,1401z"/>
<path class="st10" d="M1674.7,1401c0,6.7-5.4,12.1-12.1,12.1s-12.1-5.4-12.1-12.1c0-6.7,5.4-12.1,12.1-12.1
	S1674.7,1394.3,1674.7,1401z"/>
<path class="st10" d="M1710.2,1401c0,6.7-5.4,12.1-12.1,12.1c-6.7,0-12.1-5.4-12.1-12.1c0-6.7,5.4-12.1,12.1-12.1
	C1704.8,1388.9,1710.2,1394.3,1710.2,1401z"/>
<path class="st10" d="M1710.2,1571.7c0,6.7-5.4,12.1-12.1,12.1c-6.7,0-12.1-5.4-12.1-12.1c0-6.7,5.4-12.1,12.1-12.1
	C1704.8,1559.7,1710.2,1565.1,1710.2,1571.7z"/>
<path class="st10" d="M1710.2,1223.7c0,6.7-5.4,12.1-12.1,12.1c-6.7,0-12.1-5.4-12.1-12.1c0-6.7,5.4-12.1,12.1-12.1
	C1704.8,1211.6,1710.2,1217,1710.2,1223.7z"/>
<path class="st10" d="M1028.6,1547.6c0,6.7-5.4,12.1-12.1,12.1c-6.7,0-12.1-5.4-12.1-12.1c0-6.7,5.4-12.1,12.1-12.1
	C1023.2,1535.5,1028.6,1540.9,1028.6,1547.6z"/>
<path class="st10" d="M1028.6,1600.9c0,6.7-5.4,12.1-12.1,12.1c-6.7,0-12.1-5.4-12.1-12.1c0-6.7,5.4-12.1,12.1-12.1
	C1023.2,1588.9,1028.6,1594.3,1028.6,1600.9z"/>
<path class="st10" d="M1028.6,1654.3c0,6.7-5.4,12.1-12.1,12.1c-6.7,0-12.1-5.4-12.1-12.1c0-6.7,5.4-12.1,12.1-12.1
	C1023.2,1642.2,1028.6,1647.6,1028.6,1654.3z"/>
<path class="st10" d="M1710.2,1678.5c0,6.7-5.4,12.1-12.1,12.1c-6.7,0-12.1-5.4-12.1-12.1s5.4-12.1,12.1-12.1
	C1704.8,1666.4,1710.2,1671.8,1710.2,1678.5z"/>
<path class="st10" d="M1710.2,1856.4c0,6.7-5.4,12.1-12.1,12.1c-6.7,0-12.1-5.4-12.1-12.1c0-6.7,5.4-12.1,12.1-12.1
	C1704.8,1844.3,1710.2,1849.7,1710.2,1856.4z"/>
<path class="st10" d="M756.7,1743.2c0,6.7-5.4,12.1-12.1,12.1c-6.7,0-12.1-5.4-12.1-12.1c0-6.7,5.4-12.1,12.1-12.1
	C751.3,1731.2,756.7,1736.6,756.7,1743.2z"/>
<ellipse transform="matrix(0.9221 -0.3868 0.3868 0.9221 -671.4483 434.8709)" class="st10" cx="744.6" cy="1885.6" rx="12.1" ry="12.1"/>
<line class="st11" x1="1591.4" y1="1223.7" x2="1698.1" y2="1223.7"/>
<line class="st11" x1="596.2" y1="1401" x2="744.6" y2="1401"/>
<line class="st11" x1="1158.9" y1="1401" x2="1351.3" y2="1401"/>
</svg>
